<svg width="2335" height="60" viewBox="0 0 2335 60" fill="none" xmlns="http://www.w3.org/2000/svg">
<rect width="2335" height="60" fill="#F54932"/>
<path d="M28.0559 36.68C28.0559 36.8707 27.9753 37.8093 27.8139 39.496C27.6526 41.1827 27.5646 42.048 27.5499 42.092H26.1419C26.1126 41.5493 26.0466 40.7573 25.9439 39.716C25.8559 38.6747 25.7899 38.1027 25.7459 38H15.6919C15.6333 38.0587 15.4866 38.616 15.2519 39.672C15.0319 40.728 14.8633 41.542 14.7459 42.114H13.3159C13.3306 41.5273 13.3599 40.6473 13.4039 39.474C13.4626 38.3153 13.5139 37.384 13.5579 36.68H15.1639C15.5159 36.24 15.8973 35.5213 16.3079 34.524C16.7333 33.512 17.1146 32.148 17.4519 30.432C17.7893 28.7013 17.9579 26.6773 17.9579 24.36V23.018L15.6919 22.754V21.654H28.1439V22.754L26.0759 23.018V36.68H28.0559ZM19.3219 24.492C19.3366 26.5747 19.2119 28.4667 18.9479 30.168C18.6839 31.8547 18.3686 33.248 18.0019 34.348C17.6499 35.448 17.3273 36.2253 17.0339 36.68H23.7439L23.7659 22.93H19.3219V24.492ZM31.9142 23.018L30.1102 22.754V21.654H41.3082L41.6162 25.064H40.3622L39.7242 22.93L34.2682 22.798V29.002L37.9422 28.936L38.2502 27.11H39.4602V32.17H38.2502L37.9422 30.278L34.2682 30.212V36.768L40.4722 36.548L41.6382 33.776L42.9362 34.172L42.2982 38H30.0882V36.922L31.9142 36.702V23.018ZM49.9183 24.998C49.9183 27.638 49.7643 29.97 49.4563 31.994C49.1629 34.0033 48.7156 35.5287 48.1143 36.57C47.8063 37.098 47.4543 37.4867 47.0583 37.736C46.6623 37.9853 46.1929 38.11 45.6503 38.11C44.9463 38.11 44.4256 38.0733 44.0883 38L43.9343 36.218C44.2716 36.262 44.8216 36.284 45.5843 36.284C45.8629 36.284 46.1049 36.2253 46.3102 36.108C46.5156 35.976 46.7063 35.756 46.8823 35.448C47.9969 33.7173 48.5543 30.1533 48.5543 24.756V23.018L46.0243 22.754V21.654H58.7403V22.754L56.6943 23.018V36.702L58.8723 36.922V38H52.0963V36.922L54.3623 36.68L54.3843 23.018H49.9183V24.998ZM67.2835 38.242C65.7875 38.242 64.5188 37.8973 63.4775 37.208C62.4508 36.5187 61.6735 35.5507 61.1455 34.304C60.6175 33.0427 60.3535 31.5833 60.3535 29.926C60.3535 28.2393 60.6688 26.758 61.2995 25.482C61.9448 24.206 62.8248 23.2233 63.9395 22.534C65.0541 21.83 66.3081 21.478 67.7015 21.478C69.9895 21.478 71.7348 22.204 72.9375 23.656C74.1548 25.0933 74.7635 27.088 74.7635 29.64C74.7635 31.356 74.4335 32.8667 73.7735 34.172C73.1281 35.4627 72.2335 36.4673 71.0895 37.186C69.9601 37.89 68.6915 38.242 67.2835 38.242ZM67.5695 22.622C66.1468 22.622 65.0248 23.2453 64.2035 24.492C63.3821 25.724 62.9715 27.5353 62.9715 29.926C62.9715 32.126 63.3675 33.8713 64.1595 35.162C64.9661 36.438 66.0881 37.076 67.5255 37.076C68.9335 37.076 70.0481 36.438 70.8695 35.162C71.7055 33.886 72.1235 32.0527 72.1235 29.662C72.1235 27.4473 71.7275 25.724 70.9355 24.492C70.1435 23.2453 69.0215 22.622 67.5695 22.622ZM97.1811 21.654V22.754L95.3111 23.04V36.68L97.3571 36.922V38H91.1531V36.922L92.9791 36.68V22.952H85.9391V36.702L87.9851 36.922V38H81.8251V36.922L83.6071 36.702V23.018L81.7371 22.754V21.654H97.1811ZM105.891 38.242C104.395 38.242 103.126 37.8973 102.085 37.208C101.058 36.5187 100.281 35.5507 99.7529 34.304C99.2249 33.0427 98.9609 31.5833 98.9609 29.926C98.9609 28.2393 99.2762 26.758 99.9069 25.482C100.552 24.206 101.432 23.2233 102.547 22.534C103.662 21.83 104.916 21.478 106.309 21.478C108.597 21.478 110.342 22.204 111.545 23.656C112.762 25.0933 113.371 27.088 113.371 29.64C113.371 31.356 113.041 32.8667 112.381 34.172C111.736 35.4627 110.841 36.4673 109.697 37.186C108.568 37.89 107.299 38.242 105.891 38.242ZM106.177 22.622C104.754 22.622 103.632 23.2453 102.811 24.492C101.99 25.724 101.579 27.5353 101.579 29.926C101.579 32.126 101.975 33.8713 102.767 35.162C103.574 36.438 104.696 37.076 106.133 37.076C107.541 37.076 108.656 36.438 109.477 35.162C110.313 33.886 110.731 32.0527 110.731 29.662C110.731 27.4473 110.335 25.724 109.543 24.492C108.751 23.2453 107.629 22.622 106.177 22.622ZM117.698 23.018L115.3 22.754V21.654H121.13L124.232 31.554L124.958 34.348L125.618 31.554L128.698 21.654H134.484V22.754L132.064 23.018L133.824 36.68L135.738 36.922V38H129.402V36.922L131.404 36.702L130.414 26.824L129.952 22.578L129.028 25.746L125.354 37.252H123.924L120.36 26.714L119.062 22.556L118.666 26.824L117.786 36.702L119.964 36.922V38H114.222V36.922L116.092 36.702L117.698 23.018ZM143.553 38.242C142.057 38.242 140.788 37.8973 139.747 37.208C138.72 36.5187 137.943 35.5507 137.415 34.304C136.887 33.0427 136.623 31.5833 136.623 29.926C136.623 28.2393 136.938 26.758 137.569 25.482C138.214 24.206 139.094 23.2233 140.209 22.534C141.324 21.83 142.578 21.478 143.971 21.478C146.259 21.478 148.004 22.204 149.207 23.656C150.424 25.0933 151.033 27.088 151.033 29.64C151.033 31.356 150.703 32.8667 150.043 34.172C149.398 35.4627 148.503 36.4673 147.359 37.186C146.23 37.89 144.961 38.242 143.553 38.242ZM143.839 22.622C142.416 22.622 141.294 23.2453 140.473 24.492C139.652 25.724 139.241 27.5353 139.241 29.926C139.241 32.126 139.637 33.8713 140.429 35.162C141.236 36.438 142.358 37.076 143.795 37.076C145.203 37.076 146.318 36.438 147.139 35.162C147.975 33.886 148.393 32.0527 148.393 29.662C148.393 27.4473 147.997 25.724 147.205 24.492C146.413 23.2453 145.291 22.622 143.839 22.622ZM175.666 36.68C175.475 38.8067 175.277 40.6107 175.072 42.092H173.664C173.635 41.5493 173.583 40.7573 173.51 39.716C173.437 38.6893 173.378 38.1173 173.334 38H152.588V36.922L154.656 36.702V23.018L152.83 22.754V21.654H158.924V22.754L156.966 23.018V36.702H162.752V23.018L161.058 22.754V21.654H166.734V22.754L165.018 23.018V36.702H170.694V23.018L169.044 22.754V21.654H174.83V22.754L173.026 23.018V36.68H175.666ZM183.593 21.654V22.754L181.437 23.018V34.062L183.241 31.356L189.577 23.612V23.018L187.619 22.754V21.654H193.669V22.754L191.909 23.018V36.702L193.779 36.922V38H187.641V36.922L189.577 36.702V25.504L187.949 28.056L181.437 35.91V36.702L183.505 36.922V38H177.301V36.922L179.127 36.702V23.018L177.367 22.754V21.654H183.593ZM208.432 34.612C208.373 34.7293 208.197 35.1473 207.904 35.866C207.611 36.57 207.193 37.142 206.65 37.582C206.107 38.022 205.477 38.242 204.758 38.242C204.377 38.242 203.995 38.2053 203.614 38.132C203.247 38.0733 202.947 37.9927 202.712 37.89V36.328L204.274 36.35C204.949 36.35 205.447 36.218 205.77 35.954C206.093 35.6753 206.371 35.184 206.606 34.48L201.062 23.018L199.874 22.754V21.654H205.814V22.754L203.658 23.018L207.2 30.674L207.86 32.676L208.586 30.652L211.38 23.018L209.51 22.754V21.654H214.218V22.754L213.074 23.018L208.432 34.612ZM220.243 22.82L216.459 22.952L215.689 27.55H214.237L214.611 21.654H228.317L228.581 27.55H227.195L226.469 22.952L222.663 22.82V36.702L225.787 36.922V38H217.383V36.922L220.243 36.702V22.82ZM236.774 38.242C235.278 38.242 234.009 37.8973 232.968 37.208C231.941 36.5187 231.164 35.5507 230.636 34.304C230.108 33.0427 229.844 31.5833 229.844 29.926C229.844 28.2393 230.159 26.758 230.79 25.482C231.435 24.206 232.315 23.2233 233.43 22.534C234.544 21.83 235.798 21.478 237.192 21.478C239.48 21.478 241.225 22.204 242.428 23.656C243.645 25.0933 244.254 27.088 244.254 29.64C244.254 31.356 243.924 32.8667 243.264 34.172C242.618 35.4627 241.724 36.4673 240.58 37.186C239.45 37.89 238.182 38.242 236.774 38.242ZM237.06 22.622C235.637 22.622 234.515 23.2453 233.694 24.492C232.872 25.724 232.462 27.5353 232.462 29.926C232.462 32.126 232.858 33.8713 233.65 35.162C234.456 36.438 235.578 37.076 237.016 37.076C238.424 37.076 239.538 36.438 240.36 35.162C241.196 33.886 241.614 32.0527 241.614 29.662C241.614 27.4473 241.218 25.724 240.426 24.492C239.634 23.2453 238.512 22.622 237.06 22.622ZM261.451 21.654V22.754L259.581 23.04V36.68L261.627 36.922V38H255.423V36.922L257.249 36.68V22.952H250.209V36.702L252.255 36.922V38H246.095V36.922L247.877 36.702V23.018L246.007 22.754V21.654H261.451ZM268.862 21.522H271.282L276.628 36.702L277.992 36.922V38H272.184V36.922L274.01 36.702L272.976 33.446H266.552L265.518 36.702L267.41 36.922V38H262.196V36.922L263.56 36.702L268.862 21.522ZM270.248 25.042L269.698 23.106L269.17 25.086L266.948 32.148H272.558L270.248 25.042ZM286.515 28.936C286.662 27.396 287.08 26.0613 287.769 24.932C288.458 23.8027 289.324 22.9447 290.365 22.358C291.421 21.7567 292.558 21.4633 293.775 21.478C295.212 21.478 296.437 21.8153 297.449 22.49C298.476 23.15 299.253 24.0813 299.781 25.284C300.309 26.472 300.573 27.858 300.573 29.442C300.573 31.2167 300.258 32.7713 299.627 34.106C299.011 35.426 298.16 36.438 297.075 37.142C296.004 37.846 294.802 38.198 293.467 38.198C291.986 38.198 290.724 37.8753 289.683 37.23C288.642 36.57 287.85 35.646 287.307 34.458C286.764 33.2553 286.486 31.8547 286.471 30.256H282.951V36.68L284.843 36.922V38H278.793V36.922L280.597 36.68V23.018L278.837 22.754V21.654H284.755V22.754L282.929 23.018V28.936H286.515ZM293.621 22.666C292.228 22.666 291.113 23.2747 290.277 24.492C289.441 25.7093 289.023 27.5353 289.023 29.97C289.023 32.0967 289.419 33.798 290.211 35.074C291.018 36.35 292.147 36.988 293.599 36.988C294.992 36.988 296.07 36.372 296.833 35.14C297.61 33.8933 297.999 32.06 297.999 29.64C297.999 27.5133 297.618 25.8193 296.855 24.558C296.092 23.2967 295.014 22.666 293.621 22.666ZM325.283 36.68C325.092 38.8067 324.894 40.6107 324.689 42.092H323.281C323.252 41.5493 323.2 40.7573 323.127 39.716C323.054 38.6893 322.995 38.1173 322.951 38H302.205V36.922L304.273 36.702V23.018L302.447 22.754V21.654H308.541V22.754L306.583 23.018V36.702H312.369V23.018L310.675 22.754V21.654H316.351V22.754L314.635 23.018V36.702H320.311V23.018L318.661 22.754V21.654H324.447V22.754L322.643 23.018V36.68H325.283ZM333.21 21.654V22.754L331.054 23.018V34.062L332.858 31.356L339.194 23.612V23.018L337.236 22.754V21.654H343.286V22.754L341.526 23.018V36.702L343.396 36.922V38H337.258V36.922L339.194 36.702V25.504L337.566 28.056L331.054 35.91V36.702L333.122 36.922V38H326.918V36.922L328.744 36.702V23.018L326.984 22.754V21.654H333.21ZM348.01 23.018L345.612 22.754V21.654H351.442L354.544 31.554L355.27 34.348L355.93 31.554L359.01 21.654H364.796V22.754L362.376 23.018L364.136 36.68L366.05 36.922V38H359.714V36.922L361.716 36.702L360.726 26.824L360.264 22.578L359.34 25.746L355.666 37.252H354.236L350.672 26.714L349.374 22.556L348.978 26.824L348.098 36.702L350.276 36.922V38H344.534V36.922L346.404 36.702L348.01 23.018ZM395.014 31.774H373.872V30.146H395.014V31.774ZM417.825 36.68C417.825 36.8707 417.745 37.8093 417.583 39.496C417.422 41.1827 417.334 42.048 417.319 42.092H415.911C415.882 41.5493 415.816 40.7573 415.713 39.716C415.625 38.6747 415.559 38.1027 415.515 38H405.461C405.403 38.0587 405.256 38.616 405.021 39.672C404.801 40.728 404.633 41.542 404.515 42.114H403.085C403.1 41.5273 403.129 40.6473 403.173 39.474C403.232 38.3153 403.283 37.384 403.327 36.68H404.933C405.285 36.24 405.667 35.5213 406.077 34.524C406.503 33.512 406.884 32.148 407.221 30.432C407.559 28.7013 407.727 26.6773 407.727 24.36V23.018L405.461 22.754V21.654H417.913V22.754L415.845 23.018V36.68H417.825ZM409.091 24.492C409.106 26.5747 408.981 28.4667 408.717 30.168C408.453 31.8547 408.138 33.248 407.771 34.348C407.419 35.448 407.097 36.2253 406.803 36.68H413.513L413.535 22.93H409.091V24.492ZM421.684 23.018L419.88 22.754V21.654H431.078L431.386 25.064H430.132L429.494 22.93L424.038 22.798V29.002L427.712 28.936L428.02 27.11H429.23V32.17H428.02L427.712 30.278L424.038 30.212V36.768L430.242 36.548L431.408 33.776L432.706 34.172L432.068 38H419.858V36.922L421.684 36.702V23.018ZM439.688 24.998C439.688 27.638 439.534 29.97 439.226 31.994C438.932 34.0033 438.485 35.5287 437.884 36.57C437.576 37.098 437.224 37.4867 436.828 37.736C436.432 37.9853 435.962 38.11 435.42 38.11C434.716 38.11 434.195 38.0733 433.858 38L433.704 36.218C434.041 36.262 434.591 36.284 435.354 36.284C435.632 36.284 435.874 36.2253 436.08 36.108C436.285 35.976 436.476 35.756 436.652 35.448C437.766 33.7173 438.324 30.1533 438.324 24.756V23.018L435.794 22.754V21.654H448.51V22.754L446.464 23.018V36.702L448.642 36.922V38H441.866V36.922L444.132 36.68L444.154 23.018H439.688V24.998ZM457.053 38.242C455.557 38.242 454.288 37.8973 453.247 37.208C452.22 36.5187 451.443 35.5507 450.915 34.304C450.387 33.0427 450.123 31.5833 450.123 29.926C450.123 28.2393 450.438 26.758 451.069 25.482C451.714 24.206 452.594 23.2233 453.709 22.534C454.824 21.83 456.078 21.478 457.471 21.478C459.759 21.478 461.504 22.204 462.707 23.656C463.924 25.0933 464.533 27.088 464.533 29.64C464.533 31.356 464.203 32.8667 463.543 34.172C462.898 35.4627 462.003 36.4673 460.859 37.186C459.73 37.89 458.461 38.242 457.053 38.242ZM457.339 22.622C455.916 22.622 454.794 23.2453 453.973 24.492C453.152 25.724 452.741 27.5353 452.741 29.926C452.741 32.126 453.137 33.8713 453.929 35.162C454.736 36.438 455.858 37.076 457.295 37.076C458.703 37.076 459.818 36.438 460.639 35.162C461.475 33.886 461.893 32.0527 461.893 29.662C461.893 27.4473 461.497 25.724 460.705 24.492C459.913 23.2453 458.791 22.622 457.339 22.622ZM473.355 23.018L471.639 22.754V21.654H474.565C475.093 21.654 475.613 21.632 476.127 21.588C476.919 21.5293 477.667 21.5 478.371 21.5C480.497 21.5147 482.001 21.9107 482.881 22.688C483.761 23.4653 484.201 24.6387 484.201 26.208C484.201 27.3813 483.929 28.4007 483.387 29.266C482.844 30.1313 482.089 30.7913 481.121 31.246C480.167 31.7007 479.067 31.928 477.821 31.928C477.395 31.928 476.963 31.9207 476.523 31.906C476.083 31.8767 475.811 31.8547 475.709 31.84V36.68L478.723 36.922V38H471.529V36.922L473.355 36.702V23.018ZM475.709 30.63C476.119 30.7033 476.823 30.74 477.821 30.74C478.979 30.74 479.918 30.388 480.637 29.684C481.37 28.98 481.737 27.8287 481.737 26.23C481.737 24.9687 481.421 24.0667 480.791 23.524C480.16 22.9667 479.177 22.688 477.843 22.688C477.373 22.688 476.875 22.7173 476.347 22.776C476.024 22.8053 475.811 22.82 475.709 22.82V30.63ZM493.186 34.612C493.127 34.7293 492.951 35.1473 492.658 35.866C492.364 36.57 491.946 37.142 491.404 37.582C490.861 38.022 490.23 38.242 489.512 38.242C489.13 38.242 488.749 38.2053 488.368 38.132C488.001 38.0733 487.7 37.9927 487.466 37.89V36.328L489.028 36.35C489.702 36.35 490.201 36.218 490.524 35.954C490.846 35.6753 491.125 35.184 491.36 34.48L485.816 23.018L484.628 22.754V21.654H490.568V22.754L488.412 23.018L491.954 30.674L492.614 32.676L493.34 30.652L496.134 23.018L494.264 22.754V21.654H498.972V22.754L497.828 23.018L493.186 34.612ZM507.175 29.442C507.762 29.662 508.349 30.1533 508.935 30.916C509.522 31.664 510.226 32.6833 511.047 33.974C511.605 34.8833 512.037 35.5507 512.345 35.976C512.653 36.3867 512.917 36.6213 513.137 36.68L513.973 36.922V38H511.245C510.908 38 510.527 37.714 510.101 37.142C509.691 36.5553 509.155 35.668 508.495 34.48C507.747 33.1453 507.124 32.1333 506.625 31.444C506.127 30.7547 505.65 30.41 505.195 30.41H503.787V36.68L505.745 36.944V38H499.717V36.9L501.499 36.68V23.018L499.717 22.754V21.654H505.613V22.754L503.787 23.018V29.354H505.679L510.123 23.018L508.275 22.754V21.654H513.687V22.754L511.949 23.018L507.175 29.442ZM527.644 38.242C526.031 38.242 524.652 37.8973 523.508 37.208C522.379 36.504 521.521 35.5213 520.934 34.26C520.347 32.9987 520.054 31.5173 520.054 29.816C520.054 28.1733 520.399 26.7213 521.088 25.46C521.777 24.1987 522.723 23.2233 523.926 22.534C525.129 21.83 526.478 21.478 527.974 21.478C529.103 21.478 530.46 21.654 532.044 22.006L532.77 22.138L532.55 26.098H531.076L530.526 23.304C530.321 23.128 529.961 22.9813 529.448 22.864C528.949 22.732 528.333 22.666 527.6 22.666C526.661 22.666 525.825 22.9373 525.092 23.48C524.359 24.008 523.779 24.7927 523.354 25.834C522.943 26.8753 522.738 28.122 522.738 29.574C522.738 30.9527 522.921 32.2067 523.288 33.336C523.655 34.4653 524.212 35.3673 524.96 36.042C525.708 36.702 526.632 37.032 527.732 37.032C528.509 37.032 529.103 36.966 529.514 36.834C529.939 36.702 530.299 36.5113 530.592 36.262L531.516 34.106L532.902 34.282L532.374 37.406C532.066 37.4207 531.611 37.5233 531.01 37.714C530.482 37.8753 529.969 38 529.47 38.088C528.986 38.1907 528.377 38.242 527.644 38.242ZM540.081 21.522H542.501L547.847 36.702L549.211 36.922V38H543.403V36.922L545.229 36.702L544.195 33.446H537.771L536.737 36.702L538.629 36.922V38H533.415V36.922L534.779 36.702L540.081 21.522ZM541.467 25.042L540.917 23.106L540.389 25.086L538.167 32.148H543.777L541.467 25.042ZM552.542 23.018L550.144 22.754V21.654H555.974L559.076 31.554L559.802 34.348L560.462 31.554L563.542 21.654H569.328V22.754L566.908 23.018L568.668 36.68L570.582 36.922V38H564.246V36.922L566.248 36.702L565.258 26.824L564.796 22.578L563.872 25.746L560.198 37.252H558.768L555.204 26.714L553.906 22.556L553.51 26.824L552.63 36.702L554.808 36.922V38H549.066V36.922L550.936 36.702L552.542 23.018ZM578.089 21.654V22.754L575.933 23.018V34.062L577.737 31.356L584.073 23.612V23.018L582.115 22.754V21.654H588.165V22.754L586.405 23.018V36.702L588.275 36.922V38H582.137V36.922L584.073 36.702V25.504L582.445 28.056L575.933 35.91V36.702L578.001 36.922V38H571.797V36.922L573.623 36.702V23.018L571.863 22.754V21.654H578.089ZM595.947 29.838L591.371 23.04L589.743 22.754V21.654H596.299V22.754L594.209 23.04L597.641 28.606L601.073 23.018L599.137 22.754V21.654H604.549V22.754L602.789 23.04L598.323 29.42L603.229 36.702L604.901 36.922V38H598.367V36.922L600.413 36.702L596.673 30.696L593.087 36.702L595.287 36.922V38H589.435V36.922L591.305 36.702L595.947 29.838ZM618.59 34.612C618.531 34.7293 618.355 35.1473 618.062 35.866C617.769 36.57 617.351 37.142 616.808 37.582C616.265 38.022 615.635 38.242 614.916 38.242C614.535 38.242 614.153 38.2053 613.772 38.132C613.405 38.0733 613.105 37.9927 612.87 37.89V36.328L614.432 36.35C615.107 36.35 615.605 36.218 615.928 35.954C616.251 35.6753 616.529 35.184 616.764 34.48L611.22 23.018L610.032 22.754V21.654H615.972V22.754L613.816 23.018L617.358 30.674L618.018 32.676L618.744 30.652L621.538 23.018L619.668 22.754V21.654H624.376V22.754L623.232 23.018L618.59 34.612ZM630.401 22.82L626.617 22.952L625.847 27.55H624.395L624.769 21.654H638.475L638.739 27.55H637.353L636.627 22.952L632.821 22.82V36.702L635.945 36.922V38H627.541V36.922L630.401 36.702V22.82ZM646.932 38.242C645.436 38.242 644.167 37.8973 643.126 37.208C642.099 36.5187 641.322 35.5507 640.794 34.304C640.266 33.0427 640.002 31.5833 640.002 29.926C640.002 28.2393 640.317 26.758 640.948 25.482C641.593 24.206 642.473 23.2233 643.588 22.534C644.703 21.83 645.957 21.478 647.35 21.478C649.638 21.478 651.383 22.204 652.586 23.656C653.803 25.0933 654.412 27.088 654.412 29.64C654.412 31.356 654.082 32.8667 653.422 34.172C652.777 35.4627 651.882 36.4673 650.738 37.186C649.609 37.89 648.34 38.242 646.932 38.242ZM647.218 22.622C645.795 22.622 644.673 23.2453 643.852 24.492C643.031 25.724 642.62 27.5353 642.62 29.926C642.62 32.126 643.016 33.8713 643.808 35.162C644.615 36.438 645.737 37.076 647.174 37.076C648.582 37.076 649.697 36.438 650.518 35.162C651.354 33.886 651.772 32.0527 651.772 29.662C651.772 27.4473 651.376 25.724 650.584 24.492C649.792 23.2453 648.67 22.622 647.218 22.622ZM671.609 21.654V22.754L669.739 23.04V36.68L671.785 36.922V38H665.581V36.922L667.407 36.68V22.952H660.367V36.702L662.413 36.922V38H656.253V36.922L658.035 36.702V23.018L656.165 22.754V21.654H671.609ZM679.021 21.522H681.441L686.787 36.702L688.151 36.922V38H682.343V36.922L684.169 36.702L683.135 33.446H676.711L675.677 36.702L677.569 36.922V38H672.355V36.922L673.719 36.702L679.021 21.522ZM680.407 25.042L679.857 23.106L679.329 25.086L677.107 32.148H682.717L680.407 25.042ZM696.673 28.936C696.82 27.396 697.238 26.0613 697.927 24.932C698.616 23.8027 699.482 22.9447 700.523 22.358C701.579 21.7567 702.716 21.4633 703.933 21.478C705.37 21.478 706.595 21.8153 707.607 22.49C708.634 23.15 709.411 24.0813 709.939 25.284C710.467 26.472 710.731 27.858 710.731 29.442C710.731 31.2167 710.416 32.7713 709.785 34.106C709.169 35.426 708.318 36.438 707.233 37.142C706.162 37.846 704.96 38.198 703.625 38.198C702.144 38.198 700.882 37.8753 699.841 37.23C698.8 36.57 698.008 35.646 697.465 34.458C696.922 33.2553 696.644 31.8547 696.629 30.256H693.109V36.68L695.001 36.922V38H688.951V36.922L690.755 36.68V23.018L688.995 22.754V21.654H694.913V22.754L693.087 23.018V28.936H696.673ZM703.779 22.666C702.386 22.666 701.271 23.2747 700.435 24.492C699.599 25.7093 699.181 27.5353 699.181 29.97C699.181 32.0967 699.577 33.798 700.369 35.074C701.176 36.35 702.305 36.988 703.757 36.988C705.15 36.988 706.228 36.372 706.991 35.14C707.768 33.8933 708.157 32.06 708.157 29.64C708.157 27.5133 707.776 25.8193 707.013 24.558C706.25 23.2967 705.172 22.666 703.779 22.666ZM735.441 36.68C735.251 38.8067 735.053 40.6107 734.847 42.092H733.439C733.41 41.5493 733.359 40.7573 733.285 39.716C733.212 38.6893 733.153 38.1173 733.109 38H712.363V36.922L714.431 36.702V23.018L712.605 22.754V21.654H718.699V22.754L716.741 23.018V36.702H722.527V23.018L720.833 22.754V21.654H726.509V22.754L724.793 23.018V36.702H730.469V23.018L728.819 22.754V21.654H734.605V22.754L732.801 23.018V36.68H735.441ZM743.368 21.654V22.754L741.212 23.018V34.062L743.016 31.356L749.352 23.612V23.018L747.394 22.754V21.654H753.444V22.754L751.684 23.018V36.702L753.554 36.922V38H747.416V36.922L749.352 36.702V25.504L747.724 28.056L741.212 35.91V36.702L743.28 36.922V38H737.076V36.922L738.902 36.702V23.018L737.142 22.754V21.654H743.368ZM761.227 29.838L756.651 23.04L755.023 22.754V21.654H761.579V22.754L759.489 23.04L762.921 28.606L766.353 23.018L764.417 22.754V21.654H769.829V22.754L768.069 23.04L763.603 29.42L768.509 36.702L770.181 36.922V38H763.647V36.922L765.693 36.702L761.953 30.696L758.367 36.702L760.567 36.922V38H754.715V36.922L756.585 36.702L761.227 29.838ZM774.733 32.764H773.325L772.665 18.574H775.349L774.733 32.764ZM772.577 36.834C772.577 36.394 772.745 36.02 773.083 35.712C773.42 35.404 773.801 35.25 774.227 35.25C774.696 35.25 775.055 35.382 775.305 35.646C775.554 35.91 775.679 36.24 775.679 36.636C775.679 37.1053 775.51 37.4867 775.173 37.78C774.85 38.0733 774.454 38.22 773.985 38.22C773.603 38.22 773.273 38.0953 772.995 37.846C772.716 37.582 772.577 37.2447 772.577 36.834Z" fill="white"/>
<circle cx="793" cy="30" r="3" fill="white"/>
<path d="M815.682 21.654V22.754L813.724 23.04V36.702H819.51V23.018L817.816 22.754V21.654H823.492V22.754L821.776 23.018V36.702H827.452V23.018L825.802 22.754V21.654H831.588V22.754L829.784 23.018V36.68L831.83 36.922V38H809.346V36.922L811.414 36.702V23.018L809.588 22.754V21.654H815.682ZM839.038 21.522H841.458L846.804 36.702L848.168 36.922V38H842.36V36.922L844.186 36.702L843.152 33.446H836.728L835.694 36.702L837.586 36.922V38H832.372V36.922L833.736 36.702L839.038 21.522ZM840.424 25.042L839.874 23.106L839.346 25.086L837.124 32.148H842.734L840.424 25.042ZM854.557 29.838L849.981 23.04L848.353 22.754V21.654H854.909V22.754L852.819 23.04L856.251 28.606L859.683 23.018L857.747 22.754V21.654H863.159V22.754L861.399 23.04L856.933 29.42L861.839 36.702L863.511 36.922V38H856.977V36.922L859.023 36.702L855.283 30.696L851.697 36.702L853.897 36.922V38H848.045V36.922L849.915 36.702L854.557 29.838ZM867.161 23.018L864.763 22.754V21.654H870.593L873.695 31.554L874.421 34.348L875.081 31.554L878.161 21.654H883.947V22.754L881.527 23.018L883.287 36.68L885.201 36.922V38H878.865V36.922L880.867 36.702L879.877 26.824L879.415 22.578L878.491 25.746L874.817 37.252H873.387L869.823 26.714L868.525 22.556L868.129 26.824L867.249 36.702L869.427 36.922V38H863.685V36.922L865.555 36.702L867.161 23.018ZM891.718 21.522H894.138L899.484 36.702L900.848 36.922V38H895.04V36.922L896.866 36.702L895.832 33.446H889.408L888.374 36.702L890.266 36.922V38H885.052V36.922L886.416 36.702L891.718 21.522ZM893.104 25.042L892.554 23.106L892.026 25.086L889.804 32.148H895.414L893.104 25.042ZM906.95 22.82L903.166 22.952L902.396 27.55H900.944L901.318 21.654H915.024L915.288 27.55H913.902L913.176 22.952L909.37 22.82V36.702L912.494 36.922V38H904.09V36.922L906.95 36.702V22.82ZM923.921 28.078C925.71 28.078 927.081 28.5033 928.035 29.354C928.988 30.19 929.465 31.3633 929.465 32.874C929.465 34.5607 928.929 35.866 927.859 36.79C926.788 37.714 925.373 38.176 923.613 38.176C923.378 38.176 923.129 38.1687 922.865 38.154C922.615 38.1393 922.359 38.1247 922.095 38.11C921.244 38.0367 920.489 38 919.829 38H916.837V36.922L918.685 36.702V22.996L916.903 22.71V21.654H923.173V22.71L921.017 22.996V28.1L923.921 28.078ZM937.737 21.654V22.754L935.691 23.018V36.702L937.737 36.944V38H931.269V36.922L933.315 36.702V23.018L931.269 22.754V21.654H937.737ZM921.017 36.79C921.398 36.8633 921.728 36.9147 922.007 36.944C922.3 36.9733 922.696 36.988 923.195 36.988C924.427 36.988 925.365 36.6433 926.011 35.954C926.671 35.2647 927.001 34.282 927.001 33.006C927.001 31.7887 926.678 30.8793 926.033 30.278C925.387 29.662 924.463 29.354 923.261 29.354L921.017 29.376V36.79ZM959.277 36.68C959.277 36.8707 959.196 37.8093 959.035 39.496C958.873 41.1827 958.785 42.048 958.771 42.092H957.363C957.333 41.5493 957.267 40.7573 957.165 39.716C957.077 38.6747 957.011 38.1027 956.967 38H946.913C946.854 38.0587 946.707 38.616 946.473 39.672C946.253 40.728 946.084 41.542 945.967 42.114H944.537C944.551 41.5273 944.581 40.6473 944.625 39.474C944.683 38.3153 944.735 37.384 944.779 36.68H946.385C946.737 36.24 947.118 35.5213 947.529 34.524C947.954 33.512 948.335 32.148 948.673 30.432C949.01 28.7013 949.179 26.6773 949.179 24.36V23.018L946.913 22.754V21.654H959.365V22.754L957.297 23.018V36.68H959.277ZM950.543 24.492C950.557 26.5747 950.433 28.4667 950.169 30.168C949.905 31.8547 949.589 33.248 949.223 34.348C948.871 35.448 948.548 36.2253 948.255 36.68H954.965L954.987 22.93H950.543V24.492ZM963.135 23.018L961.331 22.754V21.654H964.301C964.8 21.654 965.43 21.6247 966.193 21.566C966.897 21.5073 967.418 21.478 967.755 21.478C969.779 21.478 971.224 21.7933 972.089 22.424C972.969 23.0547 973.409 23.9787 973.409 25.196C973.409 26.2373 973.108 27.132 972.507 27.88C971.906 28.628 971.084 29.0973 970.043 29.288C971.451 29.2587 972.558 29.5887 973.365 30.278C974.172 30.9673 974.575 31.906 974.575 33.094C974.575 34.5753 974.047 35.7853 972.991 36.724C971.95 37.6627 970.219 38.132 967.799 38.132C967.271 38.132 966.765 38.11 966.281 38.066C965.137 38.022 964.455 38 964.235 38H961.309V36.922L963.135 36.702V23.018ZM965.467 28.87C965.672 28.8847 966.09 28.892 966.721 28.892H967.931C968.958 28.892 969.735 28.606 970.263 28.034C970.791 27.462 971.055 26.648 971.055 25.592C971.055 24.5653 970.791 23.8173 970.263 23.348C969.735 22.864 968.833 22.622 967.557 22.622C967.029 22.622 966.486 22.6513 965.929 22.71L965.467 22.754V28.87ZM965.467 36.768C965.804 36.8853 966.567 36.944 967.755 36.944C969.236 36.944 970.307 36.6433 970.967 36.042C971.642 35.426 971.979 34.546 971.979 33.402C971.979 32.2727 971.686 31.4513 971.099 30.938C970.527 30.4247 969.596 30.168 968.305 30.168C966.809 30.168 965.863 30.1827 965.467 30.212V36.768ZM982.727 21.654V22.754L980.571 23.018V34.062L982.375 31.356L988.711 23.612V23.018L986.753 22.754V21.654H992.803V22.754L991.043 23.018V36.702L992.913 36.922V38H986.775V36.922L988.711 36.702V25.504L987.083 28.056L980.571 35.91V36.702L982.639 36.922V38H976.435V36.922L978.261 36.702V23.018L976.501 22.754V21.654H982.727ZM1006.13 21.654L1006.28 27.44H1004.81L1004.17 22.974L999.332 22.798V36.68L1003.16 36.922V38H994.536V36.922L996.956 36.68V23.04L994.602 22.732V21.654H1006.13ZM1012.98 21.522H1015.4L1020.74 36.702L1022.11 36.922V38H1016.3V36.922L1018.12 36.702L1017.09 33.446H1010.67L1009.63 36.702L1011.52 36.922V38H1006.31V36.922L1007.67 36.702L1012.98 21.522ZM1014.36 25.042L1013.81 23.106L1013.28 25.086L1011.06 32.148H1016.67L1014.36 25.042ZM1030.63 28.936C1030.77 27.396 1031.19 26.0613 1031.88 24.932C1032.57 23.8027 1033.44 22.9447 1034.48 22.358C1035.53 21.7567 1036.67 21.4633 1037.89 21.478C1039.33 21.478 1040.55 21.8153 1041.56 22.49C1042.59 23.15 1043.37 24.0813 1043.89 25.284C1044.42 26.472 1044.69 27.858 1044.69 29.442C1044.69 31.2167 1044.37 32.7713 1043.74 34.106C1043.12 35.426 1042.27 36.438 1041.19 37.142C1040.12 37.846 1038.91 38.198 1037.58 38.198C1036.1 38.198 1034.84 37.8753 1033.8 37.23C1032.75 36.57 1031.96 35.646 1031.42 34.458C1030.88 33.2553 1030.6 31.8547 1030.58 30.256H1027.06V36.68L1028.96 36.922V38H1022.91V36.922L1024.71 36.68V23.018L1022.95 22.754V21.654H1028.87V22.754L1027.04 23.018V28.936H1030.63ZM1037.73 22.666C1036.34 22.666 1035.23 23.2747 1034.39 24.492C1033.55 25.7093 1033.14 27.5353 1033.14 29.97C1033.14 32.0967 1033.53 33.798 1034.32 35.074C1035.13 36.35 1036.26 36.988 1037.71 36.988C1039.11 36.988 1040.18 36.372 1040.95 35.14C1041.72 33.8933 1042.11 32.06 1042.11 29.64C1042.11 27.5133 1041.73 25.8193 1040.97 24.558C1040.21 23.2967 1039.13 22.666 1037.73 22.666ZM1051.86 22.82L1048.08 22.952L1047.31 27.55H1045.86L1046.23 21.654H1059.94L1060.2 27.55H1058.81L1058.09 22.952L1054.28 22.82V36.702L1057.41 36.922V38H1049V36.922L1051.86 36.702V22.82ZM1068.77 23.018L1066.97 22.754V21.654H1069.94C1070.44 21.654 1071.07 21.6247 1071.83 21.566C1072.54 21.5073 1073.06 21.478 1073.39 21.478C1075.42 21.478 1076.86 21.7933 1077.73 22.424C1078.61 23.0547 1079.05 23.9787 1079.05 25.196C1079.05 26.2373 1078.75 27.132 1078.15 27.88C1077.54 28.628 1076.72 29.0973 1075.68 29.288C1077.09 29.2587 1078.2 29.5887 1079 30.278C1079.81 30.9673 1080.21 31.906 1080.21 33.094C1080.21 34.5753 1079.69 35.7853 1078.63 36.724C1077.59 37.6627 1075.86 38.132 1073.44 38.132C1072.91 38.132 1072.4 38.11 1071.92 38.066C1070.78 38.022 1070.09 38 1069.87 38H1066.95V36.922L1068.77 36.702V23.018ZM1071.11 28.87C1071.31 28.8847 1071.73 28.892 1072.36 28.892H1073.57C1074.6 28.892 1075.37 28.606 1075.9 28.034C1076.43 27.462 1076.69 26.648 1076.69 25.592C1076.69 24.5653 1076.43 23.8173 1075.9 23.348C1075.37 22.864 1074.47 22.622 1073.2 22.622C1072.67 22.622 1072.12 22.6513 1071.57 22.71L1071.11 22.754V28.87ZM1071.11 36.768C1071.44 36.8853 1072.21 36.944 1073.39 36.944C1074.87 36.944 1075.95 36.6433 1076.61 36.042C1077.28 35.426 1077.62 34.546 1077.62 33.402C1077.62 32.2727 1077.32 31.4513 1076.74 30.938C1076.17 30.4247 1075.23 30.168 1073.94 30.168C1072.45 30.168 1071.5 30.1827 1071.11 30.212V36.768ZM1097.47 21.654V22.754L1095.6 23.04V36.68L1097.65 36.922V38H1091.45V36.922L1093.27 36.68V22.952H1086.23V36.702L1088.28 36.922V38H1082.12V36.922L1083.9 36.702V23.018L1082.03 22.754V21.654H1097.47ZM1101.34 23.018L1099.54 22.754V21.654H1110.74L1111.05 25.064H1109.79L1109.15 22.93L1103.7 22.798V29.002L1107.37 28.936L1107.68 27.11H1108.89V32.17H1107.68L1107.37 30.278L1103.7 30.212V36.768L1109.9 36.548L1111.07 33.776L1112.37 34.172L1111.73 38H1099.52V36.922L1101.34 36.702V23.018ZM1115.72 23.018L1114 22.754V21.654H1116.93C1117.46 21.654 1117.98 21.632 1118.49 21.588C1119.28 21.5293 1120.03 21.5 1120.73 21.5C1122.86 21.5147 1124.36 21.9107 1125.24 22.688C1126.12 23.4653 1126.56 24.6387 1126.56 26.208C1126.56 27.3813 1126.29 28.4007 1125.75 29.266C1125.21 30.1313 1124.45 30.7913 1123.48 31.246C1122.53 31.7007 1121.43 31.928 1120.18 31.928C1119.76 31.928 1119.33 31.9207 1118.89 31.906C1118.45 31.8767 1118.17 31.8547 1118.07 31.84V36.68L1121.09 36.922V38H1113.89V36.922L1115.72 36.702V23.018ZM1118.07 30.63C1118.48 30.7033 1119.19 30.74 1120.18 30.74C1121.34 30.74 1122.28 30.388 1123 29.684C1123.73 28.98 1124.1 27.8287 1124.1 26.23C1124.1 24.9687 1123.78 24.0667 1123.15 23.524C1122.52 22.9667 1121.54 22.688 1120.21 22.688C1119.74 22.688 1119.24 22.7173 1118.71 22.776C1118.39 22.8053 1118.17 22.82 1118.07 22.82V30.63ZM1129.96 23.018L1128.16 22.754V21.654H1139.36L1139.66 25.064H1138.41L1137.77 22.93L1132.32 22.798V29.002L1135.99 28.936L1136.3 27.11H1137.51V32.17H1136.3L1135.99 30.278L1132.32 30.212V36.768L1138.52 36.548L1139.69 33.776L1140.98 34.172L1140.35 38H1128.14V36.922L1129.96 36.702V23.018ZM1156.59 36.68C1156.59 36.8707 1156.51 37.8093 1156.35 39.496C1156.19 41.1827 1156.1 42.048 1156.08 42.092H1154.68C1154.65 41.5493 1154.58 40.7573 1154.48 39.716C1154.39 38.6747 1154.32 38.1027 1154.28 38H1144.23C1144.17 38.0587 1144.02 38.616 1143.79 39.672C1143.57 40.728 1143.4 41.542 1143.28 42.114H1141.85C1141.86 41.5273 1141.89 40.6473 1141.94 39.474C1142 38.3153 1142.05 37.384 1142.09 36.68H1143.7C1144.05 36.24 1144.43 35.5213 1144.84 34.524C1145.27 33.512 1145.65 32.148 1145.99 30.432C1146.32 28.7013 1146.49 26.6773 1146.49 24.36V23.018L1144.23 22.754V21.654H1156.68V22.754L1154.61 23.018V36.68H1156.59ZM1147.86 24.492C1147.87 26.5747 1147.75 28.4667 1147.48 30.168C1147.22 31.8547 1146.9 33.248 1146.54 34.348C1146.18 35.448 1145.86 36.2253 1145.57 36.68H1152.28L1152.3 22.93H1147.86V24.492ZM1165.71 23.018L1163.97 22.754V21.654H1169.96V22.754L1168.07 23.018V28.936H1175.81V23.018L1174.03 22.754V21.654H1179.92V22.754L1178.19 23.018V36.702L1179.92 36.922V38H1174.01V36.922L1175.81 36.702V30.3H1168.07V36.702L1169.98 36.922V38H1163.93V36.922L1165.71 36.702V23.018ZM1183.89 23.018L1182.08 22.754V21.654H1193.28L1193.59 25.064H1192.33L1191.7 22.93L1186.24 22.798V29.002L1189.91 28.936L1190.22 27.11H1191.43V32.17H1190.22L1189.91 30.278L1186.24 30.212V36.768L1192.44 36.548L1193.61 33.776L1194.91 34.172L1194.27 38H1182.06V36.922L1183.89 36.702V23.018ZM1206.98 22.82L1203.2 22.952L1202.43 27.55H1200.97L1201.35 21.654H1215.05L1215.32 27.55H1213.93L1213.21 22.952L1209.4 22.82V36.702L1212.52 36.922V38H1204.12V36.922L1206.98 36.702V22.82ZM1223.51 38.242C1222.01 38.242 1220.75 37.8973 1219.7 37.208C1218.68 36.5187 1217.9 35.5507 1217.37 34.304C1216.84 33.0427 1216.58 31.5833 1216.58 29.926C1216.58 28.2393 1216.9 26.758 1217.53 25.482C1218.17 24.206 1219.05 23.2233 1220.17 22.534C1221.28 21.83 1222.53 21.478 1223.93 21.478C1226.22 21.478 1227.96 22.204 1229.16 23.656C1230.38 25.0933 1230.99 27.088 1230.99 29.64C1230.99 31.356 1230.66 32.8667 1230 34.172C1229.35 35.4627 1228.46 36.4673 1227.32 37.186C1226.19 37.89 1224.92 38.242 1223.51 38.242ZM1223.8 22.622C1222.37 22.622 1221.25 23.2453 1220.43 24.492C1219.61 25.724 1219.2 27.5353 1219.2 29.926C1219.2 32.126 1219.59 33.8713 1220.39 35.162C1221.19 36.438 1222.31 37.076 1223.75 37.076C1225.16 37.076 1226.27 36.438 1227.1 35.162C1227.93 33.886 1228.35 32.0527 1228.35 29.662C1228.35 27.4473 1227.95 25.724 1227.16 24.492C1226.37 23.2453 1225.25 22.622 1223.8 22.622ZM1238.22 24.998C1238.22 27.638 1238.07 29.97 1237.76 31.994C1237.47 34.0033 1237.02 35.5287 1236.42 36.57C1236.11 37.098 1235.76 37.4867 1235.36 37.736C1234.96 37.9853 1234.5 38.11 1233.95 38.11C1233.25 38.11 1232.73 38.0733 1232.39 38L1232.24 36.218C1232.57 36.262 1233.12 36.284 1233.89 36.284C1234.17 36.284 1234.41 36.2253 1234.61 36.108C1234.82 35.976 1235.01 35.756 1235.18 35.448C1236.3 33.7173 1236.86 30.1533 1236.86 24.756V23.018L1234.33 22.754V21.654H1247.04V22.754L1245 23.018V36.702L1247.17 36.922V38H1240.4V36.922L1242.66 36.68L1242.69 23.018H1238.22V24.998ZM1256.03 28.078C1257.82 28.078 1259.19 28.5033 1260.14 29.354C1261.09 30.19 1261.57 31.3633 1261.57 32.874C1261.57 34.5607 1261.03 35.866 1259.96 36.79C1258.89 37.714 1257.48 38.176 1255.72 38.176C1255.48 38.176 1255.23 38.1687 1254.97 38.154C1254.72 38.1393 1254.46 38.1247 1254.2 38.11C1253.35 38.0367 1252.59 38 1251.93 38H1248.94V36.922L1250.79 36.702V22.996L1249.01 22.71V21.654H1255.28V22.71L1253.12 22.996V28.1L1256.03 28.078ZM1253.12 36.79C1253.5 36.8633 1253.83 36.9147 1254.11 36.944C1254.41 36.9733 1254.8 36.988 1255.3 36.988C1256.53 36.988 1257.47 36.6433 1258.12 35.954C1258.78 35.2647 1259.11 34.282 1259.11 33.006C1259.11 31.7887 1258.78 30.8793 1258.14 30.278C1257.49 29.662 1256.57 29.354 1255.37 29.354L1253.12 29.376V36.79ZM1270.73 29.442C1271.32 29.662 1271.91 30.1533 1272.49 30.916C1273.08 31.664 1273.78 32.6833 1274.6 33.974C1275.16 34.8833 1275.59 35.5507 1275.9 35.976C1276.21 36.3867 1276.47 36.6213 1276.69 36.68L1277.53 36.922V38H1274.8C1274.46 38 1274.08 37.714 1273.66 37.142C1273.25 36.5553 1272.71 35.668 1272.05 34.48C1271.3 33.1453 1270.68 32.1333 1270.18 31.444C1269.68 30.7547 1269.21 30.41 1268.75 30.41H1267.34V36.68L1269.3 36.944V38H1263.27V36.9L1265.06 36.68V23.018L1263.27 22.754V21.654H1269.17V22.754L1267.34 23.018V29.354H1269.24L1273.68 23.018L1271.83 22.754V21.654H1277.24V22.754L1275.51 23.018L1270.73 29.442ZM1285.34 38.242C1283.85 38.242 1282.58 37.8973 1281.54 37.208C1280.51 36.5187 1279.73 35.5507 1279.2 34.304C1278.68 33.0427 1278.41 31.5833 1278.41 29.926C1278.41 28.2393 1278.73 26.758 1279.36 25.482C1280 24.206 1280.88 23.2233 1282 22.534C1283.11 21.83 1284.37 21.478 1285.76 21.478C1288.05 21.478 1289.79 22.204 1291 23.656C1292.21 25.0933 1292.82 27.088 1292.82 29.64C1292.82 31.356 1292.49 32.8667 1291.83 34.172C1291.19 35.4627 1290.29 36.4673 1289.15 37.186C1288.02 37.89 1286.75 38.242 1285.34 38.242ZM1285.63 22.622C1284.21 22.622 1283.08 23.2453 1282.26 24.492C1281.44 25.724 1281.03 27.5353 1281.03 29.926C1281.03 32.126 1281.43 33.8713 1282.22 35.162C1283.02 36.438 1284.15 37.076 1285.58 37.076C1286.99 37.076 1288.11 36.438 1288.93 35.162C1289.76 33.886 1290.18 32.0527 1290.18 29.662C1290.18 27.4473 1289.79 25.724 1288.99 24.492C1288.2 23.2453 1287.08 22.622 1285.63 22.622ZM1307.32 29.442C1307.91 29.662 1308.49 30.1533 1309.08 30.916C1309.67 31.664 1310.37 32.6833 1311.19 33.974C1311.75 34.8833 1312.18 35.5507 1312.49 35.976C1312.8 36.3867 1313.06 36.6213 1313.28 36.68L1314.12 36.922V38H1311.39C1311.05 38 1310.67 37.714 1310.25 37.142C1309.84 36.5553 1309.3 35.668 1308.64 34.48C1307.89 33.1453 1307.27 32.1333 1306.77 31.444C1306.27 30.7547 1305.79 30.41 1305.34 30.41H1303.93V36.68L1305.89 36.944V38H1299.86V36.9L1301.64 36.68V23.018L1299.86 22.754V21.654H1305.76V22.754L1303.93 23.018V29.354H1305.82L1310.27 23.018L1308.42 22.754V21.654H1313.83V22.754L1312.09 23.018L1307.32 29.442ZM1322.68 34.612C1322.62 34.7293 1322.44 35.1473 1322.15 35.866C1321.86 36.57 1321.44 37.142 1320.9 37.582C1320.35 38.022 1319.72 38.242 1319 38.242C1318.62 38.242 1318.24 38.2053 1317.86 38.132C1317.49 38.0733 1317.19 37.9927 1316.96 37.89V36.328L1318.52 36.35C1319.19 36.35 1319.69 36.218 1320.02 35.954C1320.34 35.6753 1320.62 35.184 1320.85 34.48L1315.31 23.018L1314.12 22.754V21.654H1320.06V22.754L1317.9 23.018L1321.45 30.674L1322.11 32.676L1322.83 30.652L1325.63 23.018L1323.76 22.754V21.654H1328.46V22.754L1327.32 23.018L1322.68 34.612ZM1334.62 24.998C1334.62 27.638 1334.47 29.97 1334.16 31.994C1333.87 34.0033 1333.42 35.5287 1332.82 36.57C1332.51 37.098 1332.16 37.4867 1331.76 37.736C1331.37 37.9853 1330.9 38.11 1330.35 38.11C1329.65 38.11 1329.13 38.0733 1328.79 38L1328.64 36.218C1328.97 36.262 1329.52 36.284 1330.29 36.284C1330.57 36.284 1330.81 36.2253 1331.01 36.108C1331.22 35.976 1331.41 35.756 1331.59 35.448C1332.7 33.7173 1333.26 30.1533 1333.26 24.756V23.018L1330.73 22.754V21.654H1343.44V22.754L1341.4 23.018V36.702L1343.58 36.922V38H1336.8V36.922L1339.07 36.68L1339.09 23.018H1334.62V24.998ZM1352.43 28.078C1354.22 28.078 1355.59 28.5033 1356.54 29.354C1357.49 30.19 1357.97 31.3633 1357.97 32.874C1357.97 34.5607 1357.44 35.866 1356.36 36.79C1355.29 37.714 1353.88 38.176 1352.12 38.176C1351.88 38.176 1351.63 38.1687 1351.37 38.154C1351.12 38.1393 1350.86 38.1247 1350.6 38.11C1349.75 38.0367 1348.99 38 1348.33 38H1345.34V36.922L1347.19 36.702V22.996L1345.41 22.71V21.654H1351.68V22.71L1349.52 22.996V28.1L1352.43 28.078ZM1349.52 36.79C1349.9 36.8633 1350.23 36.9147 1350.51 36.944C1350.81 36.9733 1351.2 36.988 1351.7 36.988C1352.93 36.988 1353.87 36.6433 1354.52 35.954C1355.18 35.2647 1355.51 34.282 1355.51 33.006C1355.51 31.7887 1355.18 30.8793 1354.54 30.278C1353.89 29.662 1352.97 29.354 1351.77 29.354L1349.52 29.376V36.79ZM1364.95 22.82L1361.17 22.952L1360.4 27.55H1358.95L1359.32 21.654H1373.03L1373.29 27.55H1371.91L1371.18 22.952L1367.37 22.82V36.702L1370.5 36.922V38H1362.09V36.922L1364.95 36.702V22.82ZM1382.23 34.612C1382.17 34.7293 1382 35.1473 1381.7 35.866C1381.41 36.57 1380.99 37.142 1380.45 37.582C1379.91 38.022 1379.28 38.242 1378.56 38.242C1378.18 38.242 1377.8 38.2053 1377.41 38.132C1377.05 38.0733 1376.75 37.9927 1376.51 37.89V36.328L1378.07 36.35C1378.75 36.35 1379.25 36.218 1379.57 35.954C1379.89 35.6753 1380.17 35.184 1380.41 34.48L1374.86 23.018L1373.67 22.754V21.654H1379.61V22.754L1377.46 23.018L1381 30.674L1381.66 32.676L1382.39 30.652L1385.18 23.018L1383.31 22.754V21.654H1388.02V22.754L1386.87 23.018L1382.23 34.612ZM1390.55 23.018L1388.83 22.754V21.654H1391.76C1392.28 21.654 1392.8 21.632 1393.32 21.588C1394.11 21.5293 1394.86 21.5 1395.56 21.5C1397.69 21.5147 1399.19 21.9107 1400.07 22.688C1400.95 23.4653 1401.39 24.6387 1401.39 26.208C1401.39 27.3813 1401.12 28.4007 1400.58 29.266C1400.04 30.1313 1399.28 30.7913 1398.31 31.246C1397.36 31.7007 1396.26 31.928 1395.01 31.928C1394.59 31.928 1394.15 31.9207 1393.71 31.906C1393.27 31.8767 1393 31.8547 1392.9 31.84V36.68L1395.91 36.922V38H1388.72V36.922L1390.55 36.702V23.018ZM1392.9 30.63C1393.31 30.7033 1394.01 30.74 1395.01 30.74C1396.17 30.74 1397.11 30.388 1397.83 29.684C1398.56 28.98 1398.93 27.8287 1398.93 26.23C1398.93 24.9687 1398.61 24.0667 1397.98 23.524C1397.35 22.9667 1396.37 22.688 1395.03 22.688C1394.56 22.688 1394.07 22.7173 1393.54 22.776C1393.22 22.8053 1393 22.82 1392.9 22.82V30.63ZM1410.38 34.612C1410.32 34.7293 1410.14 35.1473 1409.85 35.866C1409.56 36.57 1409.14 37.142 1408.6 37.582C1408.05 38.022 1407.42 38.242 1406.7 38.242C1406.32 38.242 1405.94 38.2053 1405.56 38.132C1405.19 38.0733 1404.89 37.9927 1404.66 37.89V36.328L1406.22 36.35C1406.89 36.35 1407.39 36.218 1407.72 35.954C1408.04 35.6753 1408.32 35.184 1408.55 34.48L1403.01 23.018L1401.82 22.754V21.654H1407.76V22.754L1405.6 23.018L1409.15 30.674L1409.81 32.676L1410.53 30.652L1413.33 23.018L1411.46 22.754V21.654H1416.16V22.754L1415.02 23.018L1410.38 34.612ZM1419.59 34.7C1420.09 34.7 1420.5 34.942 1420.82 35.426C1421.15 35.8953 1421.31 36.5407 1421.31 37.362C1421.31 38.198 1421.18 39.0047 1420.91 39.782C1420.65 40.5593 1420.32 41.2193 1419.92 41.762C1419.53 42.3193 1419.14 42.708 1418.76 42.928H1418.73L1417.99 42.4V42.158C1418.28 41.9233 1418.57 41.41 1418.87 40.618C1419.17 39.8407 1419.33 39.1 1419.33 38.396C1419.33 38.176 1419.28 38 1419.2 37.868C1419.12 37.7213 1419 37.5527 1418.82 37.362C1418.62 37.142 1418.46 36.9367 1418.36 36.746C1418.26 36.5553 1418.21 36.2987 1418.21 35.976C1418.21 35.5947 1418.32 35.2867 1418.56 35.052C1418.81 34.8173 1419.12 34.7 1419.48 34.7H1419.59ZM1431.28 23.018L1429.54 22.754V21.654H1435.53V22.754L1433.63 23.018V28.936H1441.38V23.018L1439.6 22.754V21.654H1445.49V22.754L1443.75 23.018V36.702L1445.49 36.922V38H1439.57V36.922L1441.38 36.702V30.3H1433.63V36.702L1435.55 36.922V38H1429.5V36.922L1431.28 36.702V23.018ZM1454.3 38.242C1452.8 38.242 1451.53 37.8973 1450.49 37.208C1449.46 36.5187 1448.69 35.5507 1448.16 34.304C1447.63 33.0427 1447.37 31.5833 1447.37 29.926C1447.37 28.2393 1447.68 26.758 1448.31 25.482C1448.96 24.206 1449.84 23.2233 1450.95 22.534C1452.07 21.83 1453.32 21.478 1454.71 21.478C1457 21.478 1458.75 22.204 1459.95 23.656C1461.17 25.0933 1461.78 27.088 1461.78 29.64C1461.78 31.356 1461.45 32.8667 1460.79 34.172C1460.14 35.4627 1459.25 36.4673 1458.1 37.186C1456.97 37.89 1455.7 38.242 1454.3 38.242ZM1454.58 22.622C1453.16 22.622 1452.04 23.2453 1451.22 24.492C1450.39 25.724 1449.98 27.5353 1449.98 29.926C1449.98 32.126 1450.38 33.8713 1451.17 35.162C1451.98 36.438 1453.1 37.076 1454.54 37.076C1455.95 37.076 1457.06 36.438 1457.88 35.162C1458.72 33.886 1459.14 32.0527 1459.14 29.662C1459.14 27.4473 1458.74 25.724 1457.95 24.492C1457.16 23.2453 1456.03 22.622 1454.58 22.622ZM1475.08 21.654V22.754L1472.93 23.018V34.062L1474.73 31.356L1481.07 23.612V23.018L1479.11 22.754V21.654H1485.16V22.754L1483.4 23.018V36.702L1485.27 36.922V38H1479.13V36.922L1481.07 36.702V25.504L1479.44 28.056L1472.93 35.91V36.702L1475 36.922V38H1468.79V36.922L1470.62 36.702V23.018L1468.86 22.754V21.654H1475.08ZM1492.77 22.314C1493.14 22.2993 1493.61 22.204 1494.18 22.028C1494.83 21.852 1495.41 21.72 1495.94 21.632C1496.48 21.5293 1497.14 21.478 1497.92 21.478C1499.48 21.478 1500.81 21.8373 1501.93 22.556C1503.04 23.26 1503.88 24.25 1504.46 25.526C1505.04 26.802 1505.34 28.276 1505.34 29.948C1505.34 31.5907 1505.01 33.0427 1504.37 34.304C1503.72 35.5507 1502.81 36.5187 1501.64 37.208C1500.47 37.8973 1499.11 38.242 1497.57 38.242C1496.95 38.242 1496.42 38.198 1495.96 38.11C1495.51 38.022 1494.99 37.8973 1494.4 37.736C1493.74 37.5307 1493.24 37.428 1492.88 37.428L1492.49 34.172L1494.01 33.93L1494.89 36.108C1495.21 36.3573 1495.59 36.57 1496.03 36.746C1496.48 36.922 1497.1 37.01 1497.88 37.01C1498.8 37.01 1499.62 36.7533 1500.32 36.24C1501.04 35.712 1501.6 34.9493 1502.01 33.952C1502.42 32.94 1502.64 31.73 1502.65 30.322L1495.46 30.52V28.738L1502.59 28.936C1502.44 27.088 1501.96 25.5847 1501.13 24.426C1500.33 23.2673 1499.21 22.688 1497.77 22.688C1497.02 22.688 1496.44 22.7833 1496.03 22.974C1495.62 23.15 1495.24 23.392 1494.89 23.7L1494.29 25.812H1492.73L1492.77 22.314ZM1514.62 29.442C1515.21 29.662 1515.8 30.1533 1516.38 30.916C1516.97 31.664 1517.67 32.6833 1518.49 33.974C1519.05 34.8833 1519.48 35.5507 1519.79 35.976C1520.1 36.3867 1520.36 36.6213 1520.58 36.68L1521.42 36.922V38H1518.69C1518.36 38 1517.97 37.714 1517.55 37.142C1517.14 36.5553 1516.6 35.668 1515.94 34.48C1515.19 33.1453 1514.57 32.1333 1514.07 31.444C1513.57 30.7547 1513.1 30.41 1512.64 30.41H1511.23V36.68L1513.19 36.944V38H1507.16V36.9L1508.95 36.68V23.018L1507.16 22.754V21.654H1513.06V22.754L1511.23 23.018V29.354H1513.13L1517.57 23.018L1515.72 22.754V21.654H1521.13V22.754L1519.4 23.018L1514.62 29.442ZM1529.23 38.242C1527.74 38.242 1526.47 37.8973 1525.43 37.208C1524.4 36.5187 1523.62 35.5507 1523.09 34.304C1522.57 33.0427 1522.3 31.5833 1522.3 29.926C1522.3 28.2393 1522.62 26.758 1523.25 25.482C1523.89 24.206 1524.77 23.2233 1525.89 22.534C1527 21.83 1528.26 21.478 1529.65 21.478C1531.94 21.478 1533.68 22.204 1534.89 23.656C1536.1 25.0933 1536.71 27.088 1536.71 29.64C1536.71 31.356 1536.38 32.8667 1535.72 34.172C1535.08 35.4627 1534.18 36.4673 1533.04 37.186C1531.91 37.89 1530.64 38.242 1529.23 38.242ZM1529.52 22.622C1528.1 22.622 1526.97 23.2453 1526.15 24.492C1525.33 25.724 1524.92 27.5353 1524.92 29.926C1524.92 32.126 1525.32 33.8713 1526.11 35.162C1526.92 36.438 1528.04 37.076 1529.47 37.076C1530.88 37.076 1532 36.438 1532.82 35.162C1533.65 33.886 1534.07 32.0527 1534.07 29.662C1534.07 27.4473 1533.68 25.724 1532.88 24.492C1532.09 23.2453 1530.97 22.622 1529.52 22.622ZM1540.31 23.018L1538.58 22.754V21.654H1544.56V22.754L1542.67 23.018V28.936H1550.41V23.018L1548.63 22.754V21.654H1554.53V22.754L1552.79 23.018V36.702L1554.53 36.922V38H1548.61V36.922L1550.41 36.702V30.3H1542.67V36.702L1544.58 36.922V38H1538.53V36.922L1540.31 36.702V23.018ZM1563.33 38.242C1561.83 38.242 1560.56 37.8973 1559.52 37.208C1558.5 36.5187 1557.72 35.5507 1557.19 34.304C1556.66 33.0427 1556.4 31.5833 1556.4 29.926C1556.4 28.2393 1556.71 26.758 1557.34 25.482C1557.99 24.206 1558.87 23.2233 1559.98 22.534C1561.1 21.83 1562.35 21.478 1563.75 21.478C1566.03 21.478 1567.78 22.204 1568.98 23.656C1570.2 25.0933 1570.81 27.088 1570.81 29.64C1570.81 31.356 1570.48 32.8667 1569.82 34.172C1569.17 35.4627 1568.28 36.4673 1567.13 37.186C1566.01 37.89 1564.74 38.242 1563.33 38.242ZM1563.61 22.622C1562.19 22.622 1561.07 23.2453 1560.25 24.492C1559.43 25.724 1559.02 27.5353 1559.02 29.926C1559.02 32.126 1559.41 33.8713 1560.2 35.162C1561.01 36.438 1562.13 37.076 1563.57 37.076C1564.98 37.076 1566.09 36.438 1566.91 35.162C1567.75 33.886 1568.17 32.0527 1568.17 29.662C1568.17 27.4473 1567.77 25.724 1566.98 24.492C1566.19 23.2453 1565.07 22.622 1563.61 22.622ZM1575.14 23.018L1572.74 22.754V21.654H1578.57L1581.67 31.554L1582.4 34.348L1583.06 31.554L1586.14 21.654H1591.92V22.754L1589.5 23.018L1591.26 36.68L1593.18 36.922V38H1586.84V36.922L1588.84 36.702L1587.85 26.824L1587.39 22.578L1586.47 25.746L1582.79 37.252H1581.36L1577.8 26.714L1576.5 22.556L1576.1 26.824L1575.22 36.702L1577.4 36.922V38H1571.66V36.922L1573.53 36.702L1575.14 23.018ZM1600.68 21.654V22.754L1598.53 23.018V34.062L1600.33 31.356L1606.67 23.612V23.018L1604.71 22.754V21.654H1610.76V22.754L1609 23.018V36.702L1610.87 36.922V38H1604.73V36.922L1606.67 36.702V25.504L1605.04 28.056L1598.53 35.91V36.702L1600.59 36.922V38H1594.39V36.922L1596.22 36.702V23.018L1594.46 22.754V21.654H1600.68ZM1620.43 29.442C1621.02 29.662 1621.61 30.1533 1622.19 30.916C1622.78 31.664 1623.48 32.6833 1624.3 33.974C1624.86 34.8833 1625.3 35.5507 1625.6 35.976C1625.91 36.3867 1626.18 36.6213 1626.4 36.68L1627.23 36.922V38H1624.5C1624.17 38 1623.78 37.714 1623.36 37.142C1622.95 36.5553 1622.41 35.668 1621.75 34.48C1621.01 33.1453 1620.38 32.1333 1619.88 31.444C1619.38 30.7547 1618.91 30.41 1618.45 30.41H1617.05V36.68L1619 36.944V38H1612.98V36.9L1614.76 36.68V23.018L1612.98 22.754V21.654H1618.87V22.754L1617.05 23.018V29.354H1618.94L1623.38 23.018L1621.53 22.754V21.654H1626.95V22.754L1625.21 23.018L1620.43 29.442ZM1635.79 34.612C1635.73 34.7293 1635.56 35.1473 1635.26 35.866C1634.97 36.57 1634.55 37.142 1634.01 37.582C1633.47 38.022 1632.84 38.242 1632.12 38.242C1631.74 38.242 1631.35 38.2053 1630.97 38.132C1630.61 38.0733 1630.31 37.9927 1630.07 37.89V36.328L1631.63 36.35C1632.31 36.35 1632.81 36.218 1633.13 35.954C1633.45 35.6753 1633.73 35.184 1633.97 34.48L1628.42 23.018L1627.23 22.754V21.654H1633.17V22.754L1631.02 23.018L1634.56 30.674L1635.22 32.676L1635.95 30.652L1638.74 23.018L1636.87 22.754V21.654H1641.58V22.754L1640.43 23.018L1635.79 34.612ZM1645.73 32.764H1644.32L1643.66 18.574H1646.35L1645.73 32.764ZM1643.58 36.834C1643.58 36.394 1643.75 36.02 1644.08 35.712C1644.42 35.404 1644.8 35.25 1645.23 35.25C1645.7 35.25 1646.06 35.382 1646.3 35.646C1646.55 35.91 1646.68 36.24 1646.68 36.636C1646.68 37.1053 1646.51 37.4867 1646.17 37.78C1645.85 38.0733 1645.45 38.22 1644.98 38.22C1644.6 38.22 1644.27 38.0953 1643.99 37.846C1643.72 37.582 1643.58 37.2447 1643.58 36.834Z" fill="white"/>
<circle cx="1664" cy="30" r="3" fill="white"/>
<path d="M1685.72 24.998C1685.72 27.638 1685.56 29.97 1685.25 31.994C1684.96 34.0033 1684.51 35.5287 1683.91 36.57C1683.6 37.098 1683.25 37.4867 1682.86 37.736C1682.46 37.9853 1681.99 38.11 1681.45 38.11C1680.74 38.11 1680.22 38.0733 1679.89 38L1679.73 36.218C1680.07 36.262 1680.62 36.284 1681.38 36.284C1681.66 36.284 1681.9 36.2253 1682.11 36.108C1682.31 35.976 1682.5 35.756 1682.68 35.448C1683.79 33.7173 1684.35 30.1533 1684.35 24.756V23.018L1681.82 22.754V21.654H1694.54V22.754L1692.49 23.018V36.702L1694.67 36.922V38H1687.89V36.922L1690.16 36.68L1690.18 23.018H1685.72V24.998ZM1698.24 23.018L1696.44 22.754V21.654H1707.63L1707.94 25.064H1706.69L1706.05 22.93L1700.59 22.798V29.002L1704.27 28.936L1704.58 27.11H1705.79V32.17H1704.58L1704.27 30.278L1700.59 30.212V36.768L1706.8 36.548L1707.96 33.776L1709.26 34.172L1708.62 38H1696.41V36.922L1698.24 36.702V23.018ZM1724.87 36.68C1724.87 36.8707 1724.79 37.8093 1724.63 39.496C1724.47 41.1827 1724.38 42.048 1724.36 42.092H1722.95C1722.93 41.5493 1722.86 40.7573 1722.76 39.716C1722.67 38.6747 1722.6 38.1027 1722.56 38H1712.5C1712.45 38.0587 1712.3 38.616 1712.06 39.672C1711.84 40.728 1711.68 41.542 1711.56 42.114H1710.13C1710.14 41.5273 1710.17 40.6473 1710.22 39.474C1710.28 38.3153 1710.33 37.384 1710.37 36.68H1711.98C1712.33 36.24 1712.71 35.5213 1713.12 34.524C1713.55 33.512 1713.93 32.148 1714.26 30.432C1714.6 28.7013 1714.77 26.6773 1714.77 24.36V23.018L1712.5 22.754V21.654H1724.96V22.754L1722.89 23.018V36.68H1724.87ZM1716.13 24.492C1716.15 26.5747 1716.02 28.4667 1715.76 30.168C1715.5 31.8547 1715.18 33.248 1714.81 34.348C1714.46 35.448 1714.14 36.2253 1713.85 36.68H1720.56L1720.58 22.93H1716.13V24.492ZM1737.49 22.82L1733.71 22.952L1732.94 27.55H1731.48L1731.86 21.654H1745.56L1745.83 27.55H1744.44L1743.72 22.952L1739.91 22.82V36.702L1743.03 36.922V38H1734.63V36.922L1737.49 36.702V22.82ZM1749.22 23.018L1747.51 22.754V21.654H1750.43C1750.96 21.654 1751.48 21.632 1752 21.588C1752.79 21.5293 1753.54 21.5 1754.24 21.5C1756.37 21.5147 1757.87 21.9107 1758.75 22.688C1759.63 23.4653 1760.07 24.6387 1760.07 26.208C1760.07 27.3813 1759.8 28.4007 1759.26 29.266C1758.71 30.1313 1757.96 30.7913 1756.99 31.246C1756.04 31.7007 1754.94 31.928 1753.69 31.928C1753.26 31.928 1752.83 31.9207 1752.39 31.906C1751.95 31.8767 1751.68 31.8547 1751.58 31.84V36.68L1754.59 36.922V38H1747.4V36.922L1749.22 36.702V23.018ZM1751.58 30.63C1751.99 30.7033 1752.69 30.74 1753.69 30.74C1754.85 30.74 1755.79 30.388 1756.51 29.684C1757.24 28.98 1757.61 27.8287 1757.61 26.23C1757.61 24.9687 1757.29 24.0667 1756.66 23.524C1756.03 22.9667 1755.05 22.688 1753.71 22.688C1753.24 22.688 1752.74 22.7173 1752.22 22.776C1751.89 22.8053 1751.68 22.82 1751.58 22.82V30.63ZM1768.31 38.242C1766.81 38.242 1765.54 37.8973 1764.5 37.208C1763.47 36.5187 1762.7 35.5507 1762.17 34.304C1761.64 33.0427 1761.38 31.5833 1761.38 29.926C1761.38 28.2393 1761.69 26.758 1762.32 25.482C1762.97 24.206 1763.85 23.2233 1764.96 22.534C1766.08 21.83 1767.33 21.478 1768.72 21.478C1771.01 21.478 1772.76 22.204 1773.96 23.656C1775.18 25.0933 1775.79 27.088 1775.79 29.64C1775.79 31.356 1775.46 32.8667 1774.8 34.172C1774.15 35.4627 1773.26 36.4673 1772.11 37.186C1770.98 37.89 1769.71 38.242 1768.31 38.242ZM1768.59 22.622C1767.17 22.622 1766.05 23.2453 1765.23 24.492C1764.41 25.724 1763.99 27.5353 1763.99 29.926C1763.99 32.126 1764.39 33.8713 1765.18 35.162C1765.99 36.438 1767.11 37.076 1768.55 37.076C1769.96 37.076 1771.07 36.438 1771.89 35.162C1772.73 33.886 1773.15 32.0527 1773.15 29.662C1773.15 27.4473 1772.75 25.724 1771.96 24.492C1771.17 23.2453 1770.04 22.622 1768.59 22.622ZM1779.39 23.018L1777.65 22.754V21.654H1783.63V22.754L1781.74 23.018V28.936H1789.49V23.018L1787.7 22.754V21.654H1793.6V22.754L1791.86 23.018V36.702L1793.6 36.922V38H1787.68V36.922L1789.49 36.702V30.3H1781.74V36.702L1783.66 36.922V38H1777.61V36.922L1779.39 36.702V23.018ZM1803.15 34.612C1803.09 34.7293 1802.92 35.1473 1802.62 35.866C1802.33 36.57 1801.91 37.142 1801.37 37.582C1800.83 38.022 1800.2 38.242 1799.48 38.242C1799.1 38.242 1798.71 38.2053 1798.33 38.132C1797.97 38.0733 1797.67 37.9927 1797.43 37.89V36.328L1798.99 36.35C1799.67 36.35 1800.17 36.218 1800.49 35.954C1800.81 35.6753 1801.09 35.184 1801.32 34.48L1795.78 23.018L1794.59 22.754V21.654H1800.53V22.754L1798.38 23.018L1801.92 30.674L1802.58 32.676L1803.3 30.652L1806.1 23.018L1804.23 22.754V21.654H1808.94V22.754L1807.79 23.018L1803.15 34.612ZM1815.09 24.998C1815.09 27.638 1814.94 29.97 1814.63 31.994C1814.34 34.0033 1813.89 35.5287 1813.29 36.57C1812.98 37.098 1812.63 37.4867 1812.23 37.736C1811.84 37.9853 1811.37 38.11 1810.83 38.11C1810.12 38.11 1809.6 38.0733 1809.26 38L1809.11 36.218C1809.45 36.262 1810 36.284 1810.76 36.284C1811.04 36.284 1811.28 36.2253 1811.49 36.108C1811.69 35.976 1811.88 35.756 1812.06 35.448C1813.17 33.7173 1813.73 30.1533 1813.73 24.756V23.018L1811.2 22.754V21.654H1823.92V22.754L1821.87 23.018V36.702L1824.05 36.922V38H1817.27V36.922L1819.54 36.68L1819.56 23.018H1815.09V24.998ZM1833.1 38.242C1831.48 38.242 1830.11 37.8973 1828.96 37.208C1827.83 36.504 1826.97 35.5213 1826.39 34.26C1825.8 32.9987 1825.51 31.5173 1825.51 29.816C1825.51 28.1733 1825.85 26.7213 1826.54 25.46C1827.23 24.1987 1828.18 23.2233 1829.38 22.534C1830.58 21.83 1831.93 21.478 1833.43 21.478C1834.56 21.478 1835.91 21.654 1837.5 22.006L1838.22 22.138L1838 26.098H1836.53L1835.98 23.304C1835.77 23.128 1835.41 22.9813 1834.9 22.864C1834.4 22.732 1833.79 22.666 1833.05 22.666C1832.11 22.666 1831.28 22.9373 1830.55 23.48C1829.81 24.008 1829.23 24.7927 1828.81 25.834C1828.4 26.8753 1828.19 28.122 1828.19 29.574C1828.19 30.9527 1828.37 32.2067 1828.74 33.336C1829.11 34.4653 1829.67 35.3673 1830.41 36.042C1831.16 36.702 1832.09 37.032 1833.19 37.032C1833.96 37.032 1834.56 36.966 1834.97 36.834C1835.39 36.702 1835.75 36.5113 1836.05 36.262L1836.97 34.106L1838.36 34.282L1837.83 37.406C1837.52 37.4207 1837.06 37.5233 1836.46 37.714C1835.94 37.8753 1835.42 38 1834.92 38.088C1834.44 38.1907 1833.83 38.242 1833.1 38.242ZM1847.32 30.85H1846.24C1845.89 31.0993 1845.53 31.5613 1845.16 32.236C1844.81 32.9107 1844.4 33.7907 1843.95 34.876C1843.5 35.9173 1843.12 36.702 1842.83 37.23C1842.55 37.7433 1842.29 38 1842.06 38H1839.07V36.922L1839.92 36.68C1840.14 36.636 1840.37 36.4307 1840.61 36.064C1840.86 35.6827 1841.21 35.0667 1841.68 34.216C1842.17 33.248 1842.62 32.456 1843.03 31.84C1843.44 31.224 1843.85 30.7987 1844.28 30.564C1843.28 30.2853 1842.5 29.7573 1841.93 28.98C1841.37 28.188 1841.09 27.242 1841.09 26.142C1841.09 24.382 1841.61 23.1647 1842.65 22.49C1843.71 21.8153 1845.21 21.478 1847.16 21.478C1847.59 21.478 1848.14 21.5073 1848.81 21.566C1849.52 21.6247 1850.05 21.654 1850.42 21.654H1853.61V22.754L1851.76 23.018V36.702L1853.78 36.922V38H1847.29V36.922L1849.41 36.702V30.85H1847.32ZM1848.83 22.776C1848.17 22.7027 1847.59 22.666 1847.07 22.666C1845.93 22.666 1845.05 22.908 1844.43 23.392C1843.83 23.876 1843.53 24.7413 1843.53 25.988C1843.53 27.176 1843.83 28.0853 1844.43 28.716C1845.05 29.3467 1845.93 29.662 1847.07 29.662C1848.25 29.662 1849.02 29.64 1849.41 29.596V22.842L1848.83 22.776ZM1858.43 34.7C1858.93 34.7 1859.34 34.942 1859.66 35.426C1859.98 35.8953 1860.14 36.5407 1860.14 37.362C1860.14 38.198 1860.01 39.0047 1859.75 39.782C1859.48 40.5593 1859.15 41.2193 1858.76 41.762C1858.36 42.3193 1857.97 42.708 1857.59 42.928H1857.57L1856.82 42.4V42.158C1857.12 41.9233 1857.41 41.41 1857.7 40.618C1858.01 39.8407 1858.16 39.1 1858.16 38.396C1858.16 38.176 1858.12 38 1858.03 37.868C1857.96 37.7213 1857.83 37.5527 1857.66 37.362C1857.45 37.142 1857.3 36.9367 1857.2 36.746C1857.09 36.5553 1857.04 36.2987 1857.04 35.976C1857.04 35.5947 1857.16 35.2867 1857.39 35.052C1857.64 34.8173 1857.95 34.7 1858.32 34.7H1858.43ZM1879.44 21.654L1879.6 27.44H1878.12L1877.49 22.974L1872.65 22.798V36.68L1876.47 36.922V38H1867.85V36.922L1870.27 36.68V23.04L1867.92 22.732V21.654H1879.44ZM1887.59 38.242C1886.09 38.242 1884.82 37.8973 1883.78 37.208C1882.76 36.5187 1881.98 35.5507 1881.45 34.304C1880.92 33.0427 1880.66 31.5833 1880.66 29.926C1880.66 28.2393 1880.97 26.758 1881.6 25.482C1882.25 24.206 1883.13 23.2233 1884.24 22.534C1885.36 21.83 1886.61 21.478 1888.01 21.478C1890.29 21.478 1892.04 22.204 1893.24 23.656C1894.46 25.0933 1895.07 27.088 1895.07 29.64C1895.07 31.356 1894.74 32.8667 1894.08 34.172C1893.43 35.4627 1892.54 36.4673 1891.39 37.186C1890.26 37.89 1889 38.242 1887.59 38.242ZM1887.87 22.622C1886.45 22.622 1885.33 23.2453 1884.51 24.492C1883.69 25.724 1883.28 27.5353 1883.28 29.926C1883.28 32.126 1883.67 33.8713 1884.46 35.162C1885.27 36.438 1886.39 37.076 1887.83 37.076C1889.24 37.076 1890.35 36.438 1891.17 35.162C1892.01 33.886 1892.43 32.0527 1892.43 29.662C1892.43 27.4473 1892.03 25.724 1891.24 24.492C1890.45 23.2453 1889.33 22.622 1887.87 22.622ZM1904.1 38.242C1902.49 38.242 1901.11 37.8973 1899.97 37.208C1898.84 36.504 1897.98 35.5213 1897.39 34.26C1896.81 32.9987 1896.51 31.5173 1896.51 29.816C1896.51 28.1733 1896.86 26.7213 1897.55 25.46C1898.24 24.1987 1899.18 23.2233 1900.39 22.534C1901.59 21.83 1902.94 21.478 1904.43 21.478C1905.56 21.478 1906.92 21.654 1908.5 22.006L1909.23 22.138L1909.01 26.098H1907.54L1906.99 23.304C1906.78 23.128 1906.42 22.9813 1905.91 22.864C1905.41 22.732 1904.79 22.666 1904.06 22.666C1903.12 22.666 1902.28 22.9373 1901.55 23.48C1900.82 24.008 1900.24 24.7927 1899.81 25.834C1899.4 26.8753 1899.2 28.122 1899.2 29.574C1899.2 30.9527 1899.38 32.2067 1899.75 33.336C1900.11 34.4653 1900.67 35.3673 1901.42 36.042C1902.17 36.702 1903.09 37.032 1904.19 37.032C1904.97 37.032 1905.56 36.966 1905.97 36.834C1906.4 36.702 1906.76 36.5113 1907.05 36.262L1907.98 34.106L1909.36 34.282L1908.83 37.406C1908.53 37.4207 1908.07 37.5233 1907.47 37.714C1906.94 37.8753 1906.43 38 1905.93 38.088C1905.45 38.1907 1904.84 38.242 1904.1 38.242ZM1926.64 21.654V22.754L1924.77 23.04V36.68L1926.81 36.922V38H1920.61V36.922L1922.44 36.68V22.952H1915.4V36.702L1917.44 36.922V38H1911.28V36.922L1913.06 36.702V23.018L1911.19 22.754V21.654H1926.64ZM1935.35 38.242C1933.85 38.242 1932.58 37.8973 1931.54 37.208C1930.52 36.5187 1929.74 35.5507 1929.21 34.304C1928.68 33.0427 1928.42 31.5833 1928.42 29.926C1928.42 28.2393 1928.73 26.758 1929.36 25.482C1930.01 24.206 1930.89 23.2233 1932 22.534C1933.12 21.83 1934.37 21.478 1935.77 21.478C1938.05 21.478 1939.8 22.204 1941 23.656C1942.22 25.0933 1942.83 27.088 1942.83 29.64C1942.83 31.356 1942.5 32.8667 1941.84 34.172C1941.19 35.4627 1940.3 36.4673 1939.15 37.186C1938.02 37.89 1936.76 38.242 1935.35 38.242ZM1935.63 22.622C1934.21 22.622 1933.09 23.2453 1932.27 24.492C1931.45 25.724 1931.04 27.5353 1931.04 29.926C1931.04 32.126 1931.43 33.8713 1932.22 35.162C1933.03 36.438 1934.15 37.076 1935.59 37.076C1937 37.076 1938.11 36.438 1938.93 35.162C1939.77 33.886 1940.19 32.0527 1940.19 29.662C1940.19 27.4473 1939.79 25.724 1939 24.492C1938.21 23.2453 1937.09 22.622 1935.63 22.622ZM1958.68 36.68C1958.68 36.8707 1958.6 37.8093 1958.44 39.496C1958.28 41.1827 1958.19 42.048 1958.18 42.092H1956.77C1956.74 41.5493 1956.67 40.7573 1956.57 39.716C1956.48 38.6747 1956.42 38.1027 1956.37 38H1946.32C1946.26 38.0587 1946.11 38.616 1945.88 39.672C1945.66 40.728 1945.49 41.542 1945.37 42.114H1943.94C1943.96 41.5273 1943.99 40.6473 1944.03 39.474C1944.09 38.3153 1944.14 37.384 1944.18 36.68H1945.79C1946.14 36.24 1946.52 35.5213 1946.93 34.524C1947.36 33.512 1947.74 32.148 1948.08 30.432C1948.42 28.7013 1948.58 26.6773 1948.58 24.36V23.018L1946.32 22.754V21.654H1958.77V22.754L1956.7 23.018V36.68H1958.68ZM1949.95 24.492C1949.96 26.5747 1949.84 28.4667 1949.57 30.168C1949.31 31.8547 1949 33.248 1948.63 34.348C1948.28 35.448 1947.95 36.2253 1947.66 36.68H1954.37L1954.39 22.93H1949.95V24.492ZM1966.08 21.522H1968.5L1973.85 36.702L1975.21 36.922V38H1969.41V36.922L1971.23 36.702L1970.2 33.446H1963.77L1962.74 36.702L1964.63 36.922V38H1959.42V36.922L1960.78 36.702L1966.08 21.522ZM1967.47 25.042L1966.92 23.106L1966.39 25.086L1964.17 32.148H1969.78L1967.47 25.042ZM1996.63 21.654V22.754L1994.76 23.04V36.68L1996.81 36.922V38H1990.61V36.922L1992.43 36.68V22.952H1985.39V36.702L1987.44 36.922V38H1981.28V36.922L1983.06 36.702V23.018L1981.19 22.754V21.654H1996.63ZM2000.55 23.018L1998.83 22.754V21.654H2001.76C2002.29 21.654 2002.81 21.632 2003.32 21.588C2004.11 21.5293 2004.86 21.5 2005.56 21.5C2007.69 21.5147 2009.19 21.9107 2010.07 22.688C2010.95 23.4653 2011.39 24.6387 2011.39 26.208C2011.39 27.3813 2011.12 28.4007 2010.58 29.266C2010.04 30.1313 2009.28 30.7913 2008.31 31.246C2007.36 31.7007 2006.26 31.928 2005.01 31.928C2004.59 31.928 2004.16 31.9207 2003.72 31.906C2003.28 31.8767 2003 31.8547 2002.9 31.84V36.68L2005.92 36.922V38H1998.72V36.922L2000.55 36.702V23.018ZM2002.9 30.63C2003.31 30.7033 2004.02 30.74 2005.01 30.74C2006.17 30.74 2007.11 30.388 2007.83 29.684C2008.56 28.98 2008.93 27.8287 2008.93 26.23C2008.93 24.9687 2008.61 24.0667 2007.98 23.524C2007.35 22.9667 2006.37 22.688 2005.04 22.688C2004.57 22.688 2004.07 22.7173 2003.54 22.776C2003.22 22.8053 2003 22.82 2002.9 22.82V30.63ZM2019.32 21.654V22.754L2017.17 23.018V34.062L2018.97 31.356L2025.31 23.612V23.018L2023.35 22.754V21.654H2029.4V22.754L2027.64 23.018V36.702L2029.51 36.922V38H2023.37V36.922L2025.31 36.702V25.504L2023.68 28.056L2017.17 35.91V36.702L2019.24 36.922V38H2013.03V36.922L2014.86 36.702V23.018L2013.1 22.754V21.654H2019.32ZM2038.83 38.242C2037.22 38.242 2035.84 37.8973 2034.7 37.208C2033.57 36.504 2032.71 35.5213 2032.12 34.26C2031.53 32.9987 2031.24 31.5173 2031.24 29.816C2031.24 28.1733 2031.59 26.7213 2032.28 25.46C2032.96 24.1987 2033.91 23.2233 2035.11 22.534C2036.32 21.83 2037.67 21.478 2039.16 21.478C2040.29 21.478 2041.65 21.654 2043.23 22.006L2043.96 22.138L2043.74 26.098H2042.26L2041.71 23.304C2041.51 23.128 2041.15 22.9813 2040.64 22.864C2040.14 22.732 2039.52 22.666 2038.79 22.666C2037.85 22.666 2037.01 22.9373 2036.28 23.48C2035.55 24.008 2034.97 24.7927 2034.54 25.834C2034.13 26.8753 2033.93 28.122 2033.93 29.574C2033.93 30.9527 2034.11 32.2067 2034.48 33.336C2034.84 34.4653 2035.4 35.3673 2036.15 36.042C2036.9 36.702 2037.82 37.032 2038.92 37.032C2039.7 37.032 2040.29 36.966 2040.7 36.834C2041.13 36.702 2041.49 36.5113 2041.78 36.262L2042.7 34.106L2044.09 34.282L2043.56 37.406C2043.25 37.4207 2042.8 37.5233 2042.2 37.714C2041.67 37.8753 2041.16 38 2040.66 38.088C2040.17 38.1907 2039.56 38.242 2038.83 38.242ZM2053.05 30.85H2051.97C2051.62 31.0993 2051.26 31.5613 2050.89 32.236C2050.54 32.9107 2050.14 33.7907 2049.68 34.876C2049.23 35.9173 2048.86 36.702 2048.56 37.23C2048.28 37.7433 2048.03 38 2047.79 38H2044.8V36.922L2045.66 36.68C2045.88 36.636 2046.11 36.4307 2046.34 36.064C2046.59 35.6827 2046.95 35.0667 2047.42 34.216C2047.9 33.248 2048.35 32.456 2048.76 31.84C2049.17 31.224 2049.59 30.7987 2050.01 30.564C2049.02 30.2853 2048.23 29.7573 2047.66 28.98C2047.1 28.188 2046.82 27.242 2046.82 26.142C2046.82 24.382 2047.35 23.1647 2048.39 22.49C2049.44 21.8153 2050.95 21.478 2052.9 21.478C2053.32 21.478 2053.87 21.5073 2054.55 21.566C2055.25 21.6247 2055.79 21.654 2056.15 21.654H2059.34V22.754L2057.49 23.018V36.702L2059.52 36.922V38H2053.03V36.922L2055.14 36.702V30.85H2053.05ZM2054.57 22.776C2053.91 22.7027 2053.32 22.666 2052.81 22.666C2051.66 22.666 2050.78 22.908 2050.17 23.392C2049.57 23.876 2049.27 24.7413 2049.27 25.988C2049.27 27.176 2049.57 28.0853 2050.17 28.716C2050.78 29.3467 2051.66 29.662 2052.81 29.662C2053.98 29.662 2054.76 29.64 2055.14 29.596V22.842L2054.57 22.776ZM2076.37 29.464C2076.96 29.684 2077.55 30.1753 2078.13 30.938C2078.72 31.7007 2079.41 32.72 2080.2 33.996C2080.76 34.876 2081.19 35.5287 2081.5 35.954C2081.82 36.3793 2082.09 36.6213 2082.31 36.68L2083.17 36.922V38H2080.42C2080.08 38 2079.71 37.714 2079.3 37.142C2078.9 36.57 2078.36 35.6827 2077.67 34.48C2076.91 33.1453 2076.28 32.1333 2075.78 31.444C2075.28 30.7547 2074.8 30.41 2074.35 30.41H2072.96V36.68L2074.9 36.944V38H2068.87V36.922L2070.72 36.702V30.41H2069.33C2068.88 30.41 2068.39 30.762 2067.88 31.466C2067.37 32.1553 2066.74 33.16 2066.01 34.48C2065.32 35.6827 2064.77 36.57 2064.36 37.142C2063.95 37.714 2063.58 38 2063.24 38H2060.53V36.922L2061.35 36.68C2061.57 36.6213 2061.83 36.3793 2062.14 35.954C2062.46 35.5287 2062.9 34.876 2063.46 33.996C2064.25 32.7053 2064.94 31.6787 2065.53 30.916C2066.13 30.1533 2066.72 29.662 2067.31 29.442L2062.58 23.018L2060.84 22.754V21.654H2066.16V22.754L2064.45 23.018L2068.8 29.354H2070.72V23.018L2068.89 22.754V21.654H2074.85V22.754L2072.96 23.018V29.354H2074.88L2079.21 23.04L2077.49 22.754V21.654H2082.86V22.754L2081.1 23.018L2076.37 29.464ZM2086.18 23.018L2084.45 22.754V21.654H2090.43V22.754L2088.54 23.018V28.936H2096.28V23.018L2094.5 22.754V21.654H2100.4V22.754L2098.66 23.018V36.702L2100.4 36.922V38H2094.48V36.922L2096.28 36.702V30.3H2088.54V36.702L2090.45 36.922V38H2084.4V36.922L2086.18 36.702V23.018ZM2109.64 28.078C2111.43 28.078 2112.8 28.5033 2113.75 29.354C2114.71 30.19 2115.18 31.3633 2115.18 32.874C2115.18 34.5607 2114.65 35.866 2113.58 36.79C2112.51 37.714 2111.09 38.176 2109.33 38.176C2109.1 38.176 2108.85 38.1687 2108.58 38.154C2108.33 38.1393 2108.08 38.1247 2107.81 38.11C2106.96 38.0367 2106.21 38 2105.55 38H2102.56V36.922L2104.4 36.702V22.996L2102.62 22.71V21.654H2108.89V22.71L2106.74 22.996V28.1L2109.64 28.078ZM2123.46 21.654V22.754L2121.41 23.018V36.702L2123.46 36.944V38H2116.99V36.922L2119.03 36.702V23.018L2116.99 22.754V21.654H2123.46ZM2106.74 36.79C2107.12 36.8633 2107.45 36.9147 2107.73 36.944C2108.02 36.9733 2108.41 36.988 2108.91 36.988C2110.15 36.988 2111.08 36.6433 2111.73 35.954C2112.39 35.2647 2112.72 34.282 2112.72 33.006C2112.72 31.7887 2112.4 30.8793 2111.75 30.278C2111.11 29.662 2110.18 29.354 2108.98 29.354L2106.74 29.376V36.79ZM2127.48 23.018L2125.67 22.754V21.654H2136.87L2137.18 25.064H2135.92L2135.29 22.93L2129.83 22.798V29.002L2133.5 28.936L2133.81 27.11H2135.02V32.17H2133.81L2133.5 30.278L2129.83 30.212V36.768L2136.03 36.548L2137.2 33.776L2138.5 34.172L2137.86 38H2125.65V36.922L2127.48 36.702V23.018ZM2145.82 22.182C2146.05 22.1673 2146.52 22.0793 2147.23 21.918C2147.89 21.7713 2148.45 21.6613 2148.92 21.588C2149.39 21.5147 2149.84 21.478 2150.28 21.478C2152.12 21.478 2153.52 21.786 2154.51 22.402C2155.49 23.018 2155.98 23.9493 2155.98 25.196C2155.98 26.3693 2155.61 27.308 2154.86 28.012C2154.13 28.716 2153.24 29.1707 2152.2 29.376C2153.56 29.4053 2154.61 29.7793 2155.34 30.498C2156.09 31.202 2156.47 32.104 2156.47 33.204C2156.47 34.788 2155.97 36.0053 2154.99 36.856C2154.02 37.7067 2152.48 38.132 2150.35 38.132C2149.47 38.132 2148.69 38.0587 2148.02 37.912C2147.34 37.7653 2146.81 37.6333 2146.41 37.516C2146.03 37.384 2145.8 37.3033 2145.71 37.274L2146.1 33.468H2147.2L2147.82 36.328C2148.52 36.7093 2149.51 36.9 2150.77 36.9C2151.75 36.9 2152.49 36.6067 2152.99 36.02C2153.5 35.4333 2153.76 34.5533 2153.76 33.38C2153.76 32.4707 2153.49 31.708 2152.95 31.092C2152.4 30.476 2151.47 30.168 2150.15 30.168H2148.61V28.936H2149.89C2150.5 28.936 2151.08 28.8113 2151.63 28.562C2152.18 28.3127 2152.63 27.9313 2152.97 27.418C2153.3 26.89 2153.47 26.252 2153.47 25.504C2153.47 24.5213 2153.19 23.8027 2152.64 23.348C2152.09 22.8933 2151.34 22.666 2150.37 22.666C2149.73 22.666 2149.18 22.7467 2148.72 22.908C2148.28 23.0693 2147.99 23.2747 2147.84 23.524L2147.42 25.57H2146.04L2145.82 22.182ZM2163.95 21.522H2166.37L2171.72 36.702L2173.08 36.922V38H2167.28V36.922L2169.1 36.702L2168.07 33.446H2161.64L2160.61 36.702L2162.5 36.922V38H2157.29V36.922L2158.65 36.702L2163.95 21.522ZM2165.34 25.042L2164.79 23.106L2164.26 25.086L2162.04 32.148H2167.65L2165.34 25.042ZM2181.12 38.242C2179.51 38.242 2178.13 37.8973 2176.99 37.208C2175.86 36.504 2175 35.5213 2174.41 34.26C2173.83 32.9987 2173.53 31.5173 2173.53 29.816C2173.53 28.1733 2173.88 26.7213 2174.57 25.46C2175.26 24.1987 2176.2 23.2233 2177.4 22.534C2178.61 21.83 2179.96 21.478 2181.45 21.478C2182.58 21.478 2183.94 21.654 2185.52 22.006L2186.25 22.138L2186.03 26.098H2184.55L2184 23.304C2183.8 23.128 2183.44 22.9813 2182.93 22.864C2182.43 22.732 2181.81 22.666 2181.08 22.666C2180.14 22.666 2179.3 22.9373 2178.57 23.48C2177.84 24.008 2177.26 24.7927 2176.83 25.834C2176.42 26.8753 2176.22 28.122 2176.22 29.574C2176.22 30.9527 2176.4 32.2067 2176.77 33.336C2177.13 34.4653 2177.69 35.3673 2178.44 36.042C2179.19 36.702 2180.11 37.032 2181.21 37.032C2181.99 37.032 2182.58 36.966 2182.99 36.834C2183.42 36.702 2183.78 36.5113 2184.07 36.262L2184.99 34.106L2186.38 34.282L2185.85 37.406C2185.54 37.4207 2185.09 37.5233 2184.49 37.714C2183.96 37.8753 2183.45 38 2182.95 38.088C2182.46 38.1907 2181.86 38.242 2181.12 38.242ZM2190.02 23.018L2188.21 22.754V21.654H2199.41L2199.72 25.064H2198.47L2197.83 22.93L2192.37 22.798V29.002L2196.05 28.936L2196.35 27.11H2197.56V32.17H2196.35L2196.05 30.278L2192.37 30.212V36.768L2198.58 36.548L2199.74 33.776L2201.04 34.172L2200.4 38H2188.19V36.922L2190.02 36.702V23.018ZM2216.65 36.68C2216.65 36.8707 2216.57 37.8093 2216.4 39.496C2216.24 41.1827 2216.15 42.048 2216.14 42.092H2214.73C2214.7 41.5493 2214.64 40.7573 2214.53 39.716C2214.45 38.6747 2214.38 38.1027 2214.34 38H2204.28C2204.22 38.0587 2204.08 38.616 2203.84 39.672C2203.62 40.728 2203.45 41.542 2203.34 42.114H2201.91C2201.92 41.5273 2201.95 40.6473 2201.99 39.474C2202.05 38.3153 2202.1 37.384 2202.15 36.68H2203.75C2204.11 36.24 2204.49 35.5213 2204.9 34.524C2205.32 33.512 2205.7 32.148 2206.04 30.432C2206.38 28.7013 2206.55 26.6773 2206.55 24.36V23.018L2204.28 22.754V21.654H2216.73V22.754L2214.67 23.018V36.68H2216.65ZM2207.91 24.492C2207.93 26.5747 2207.8 28.4667 2207.54 30.168C2207.27 31.8547 2206.96 33.248 2206.59 34.348C2206.24 35.448 2205.92 36.2253 2205.62 36.68H2212.33L2212.36 22.93H2207.91V24.492ZM2224.05 21.522H2226.47L2231.81 36.702L2233.18 36.922V38H2227.37V36.922L2229.19 36.702L2228.16 33.446H2221.74L2220.7 36.702L2222.59 36.922V38H2217.38V36.922L2218.74 36.702L2224.05 21.522ZM2225.43 25.042L2224.88 23.106L2224.35 25.086L2222.13 32.148H2227.74L2225.43 25.042ZM2239.28 22.82L2235.49 22.952L2234.72 27.55H2233.27L2233.65 21.654H2247.35L2247.62 27.55H2246.23L2245.5 22.952L2241.7 22.82V36.702L2244.82 36.922V38H2236.42V36.922L2239.28 36.702V22.82ZM2250.97 23.018L2249.16 22.754V21.654H2260.36L2260.67 25.064H2259.42L2258.78 22.93L2253.32 22.798V29.002L2257 28.936L2257.3 27.11H2258.51V32.17H2257.3L2257 30.278L2253.32 30.212V36.768L2259.53 36.548L2260.69 33.776L2261.99 34.172L2261.35 38H2249.14V36.922L2250.97 36.702V23.018ZM2268.97 24.998C2268.97 27.638 2268.82 29.97 2268.51 31.994C2268.22 34.0033 2267.77 35.5287 2267.17 36.57C2266.86 37.098 2266.51 37.4867 2266.11 37.736C2265.72 37.9853 2265.25 38.11 2264.7 38.11C2264 38.11 2263.48 38.0733 2263.14 38L2262.99 36.218C2263.33 36.262 2263.88 36.284 2264.64 36.284C2264.92 36.284 2265.16 36.2253 2265.36 36.108C2265.57 35.976 2265.76 35.756 2265.94 35.448C2267.05 33.7173 2267.61 30.1533 2267.61 24.756V23.018L2265.08 22.754V21.654H2277.79V22.754L2275.75 23.018V36.702L2277.93 36.922V38H2271.15V36.922L2273.42 36.68L2273.44 23.018H2268.97V24.998ZM2286.03 21.654V22.754L2283.87 23.018V34.062L2285.68 31.356L2292.01 23.612V23.018L2290.06 22.754V21.654H2296.11V22.754L2294.35 23.018V36.702L2296.22 36.922V38H2290.08V36.922L2292.01 36.702V25.504L2290.39 28.056L2283.87 35.91V36.702L2285.94 36.922V38H2279.74V36.922L2281.56 36.702V23.018L2279.8 22.754V21.654H2286.03ZM2301.73 32.764H2300.32L2299.66 18.574H2302.35L2301.73 32.764ZM2299.58 36.834C2299.58 36.394 2299.75 36.02 2300.08 35.712C2300.42 35.404 2300.8 35.25 2301.23 35.25C2301.7 35.25 2302.06 35.382 2302.3 35.646C2302.55 35.91 2302.68 36.24 2302.68 36.636C2302.68 37.1053 2302.51 37.4867 2302.17 37.78C2301.85 38.0733 2301.45 38.22 2300.98 38.22C2300.6 38.22 2300.27 38.0953 2299.99 37.846C2299.72 37.582 2299.58 37.2447 2299.58 36.834Z" fill="white"/>
<circle cx="2320" cy="30" r="3" fill="white"/>
</svg>
